<svg xmlns="http://www.w3.org/2000/svg" viewBox="0 0 500 500"><g id="freepik--background-complete--inject-57"><rect y="382.4" width="500" height="0.25" style="fill:#ebebeb"></rect><rect x="416.78" y="398.49" width="33.12" height="0.25" style="fill:#ebebeb"></rect><rect x="322.53" y="401.21" width="8.69" height="0.25" style="fill:#ebebeb"></rect><rect x="396.59" y="389.21" width="19.19" height="0.25" style="fill:#ebebeb"></rect><rect x="52.46" y="390.89" width="43.19" height="0.25" style="fill:#ebebeb"></rect><rect x="104.56" y="390.89" width="6.33" height="0.25" style="fill:#ebebeb"></rect><rect x="131.47" y="395.11" width="93.68" height="0.25" style="fill:#ebebeb"></rect><path d="M237,337.8H43.91a5.71,5.71,0,0,1-5.7-5.71V60.66A5.71,5.71,0,0,1,43.91,55H237a5.71,5.71,0,0,1,5.71,5.71V332.09A5.71,5.71,0,0,1,237,337.8ZM43.91,55.2a5.46,5.46,0,0,0-5.45,5.46V332.09a5.46,5.46,0,0,0,5.45,5.46H237a5.47,5.47,0,0,0,5.46-5.46V60.66A5.47,5.47,0,0,0,237,55.2Z" style="fill:#ebebeb"></path><path d="M453.31,337.8H260.21a5.72,5.72,0,0,1-5.71-5.71V60.66A5.72,5.72,0,0,1,260.21,55h193.1A5.71,5.71,0,0,1,459,60.66V332.09A5.71,5.71,0,0,1,453.31,337.8ZM260.21,55.2a5.47,5.47,0,0,0-5.46,5.46V332.09a5.47,5.47,0,0,0,5.46,5.46h193.1a5.47,5.47,0,0,0,5.46-5.46V60.66a5.47,5.47,0,0,0-5.46-5.46Z" style="fill:#ebebeb"></path><rect x="267.64" y="109.7" width="163.56" height="6.51" rx="2.12" style="fill:#e0e0e0"></rect><rect x="277.36" y="114.88" width="144.13" height="127.9" style="fill:#e6e6e6"></rect><rect x="280.97" y="118.39" width="136.73" height="120.95" style="fill:#f0f0f0"></rect><polygon points="313.06 118.39 280.97 239.08 280.97 182.37 297.91 118.39 313.06 118.39" style="fill:#fff"></polygon><polygon points="324.42 118.39 292.05 239.34 286.89 239.34 319.26 118.39 324.42 118.39" style="fill:#fff"></polygon><polygon points="417.7 194.71 417.7 214.04 411.15 239.34 405.98 239.34 417.7 194.71" style="fill:#fff"></polygon><rect x="326.35" y="116.22" width="2.3" height="125.83" style="fill:#e6e6e6"></rect><rect x="370.99" y="116.22" width="2.3" height="125.83" style="fill:#e6e6e6"></rect><path d="M397,111.78s3.32,43.28,22.39,65.33c0,0-13.89,55.69-13.88,75.1l25.81-4.76-9.3-70,4.45-65.65Z" style="fill:#e0e0e0"></path><path d="M300.85,111.78s-3.31,43.28-22.39,65.33c0,0,13.89,55.69,13.88,75.1l-25.81-4.76,9.31-70-4.45-65.65Z" style="fill:#e0e0e0"></path><rect x="90.16" y="161.33" width="150.21" height="220.23" style="fill:#f0f0f0"></rect><rect x="95.47" y="168.26" width="139.59" height="40.67" style="fill:#e0e0e0"></rect><rect x="95.47" y="174.85" width="7.93" height="34.09" style="fill:#ebebeb"></rect><rect x="133.81" y="174.85" width="7.93" height="34.09" style="fill:#ebebeb"></rect><rect x="180.29" y="174.42" width="7.93" height="34.09" transform="translate(-29.84 34.08) rotate(-9.78)" style="fill:#ebebeb"></rect><rect x="105.29" y="179.34" width="7.93" height="29.6" style="fill:#ebebeb"></rect><rect x="123.52" y="179.34" width="7.93" height="29.6" style="fill:#ebebeb"></rect><rect x="169.53" y="179.34" width="7.93" height="29.6" style="fill:#ebebeb"></rect><rect x="147.53" y="178.83" width="7.93" height="29.6" transform="translate(-38.39 37.47) rotate(-12.53)" style="fill:#ebebeb"></rect><rect x="116.12" y="173.15" width="3.96" height="35.78" style="fill:#ebebeb"></rect><rect x="163.28" y="173.15" width="3.96" height="35.78" style="fill:#ebebeb"></rect><rect x="95.47" y="215.38" width="139.59" height="40.67" transform="translate(330.53 471.43) rotate(180)" style="fill:#e0e0e0"></rect><rect x="227.13" y="221.96" width="7.93" height="34.09" transform="translate(462.19 478.01) rotate(180)" style="fill:#ebebeb"></rect><rect x="188.79" y="221.96" width="7.93" height="34.09" transform="translate(385.5 478.01) rotate(180)" style="fill:#ebebeb"></rect><rect x="142.31" y="221.54" width="7.93" height="34.09" transform="translate(249.9 498.54) rotate(-170.22)" style="fill:#ebebeb"></rect><rect x="217.3" y="226.45" width="7.93" height="29.6" transform="translate(442.54 482.5) rotate(180)" style="fill:#ebebeb"></rect><rect x="199.08" y="226.45" width="7.93" height="29.6" transform="translate(406.08 482.5) rotate(180)" style="fill:#ebebeb"></rect><rect x="153.07" y="226.45" width="7.93" height="29.6" transform="translate(314.07 482.5) rotate(180)" style="fill:#ebebeb"></rect><rect x="175.07" y="225.95" width="7.93" height="29.6" transform="translate(301.59 514.59) rotate(-167.47)" style="fill:#ebebeb"></rect><rect x="210.45" y="220.27" width="3.96" height="35.78" transform="translate(424.86 476.32) rotate(180)" style="fill:#ebebeb"></rect><rect x="163.28" y="220.27" width="3.96" height="35.78" transform="translate(330.53 476.32) rotate(180)" style="fill:#ebebeb"></rect><rect x="95.47" y="221.96" width="7.93" height="34.09" style="fill:#ebebeb"></rect><rect x="105.29" y="226.45" width="7.93" height="29.6" style="fill:#ebebeb"></rect><rect x="123.52" y="226.45" width="7.93" height="29.6" style="fill:#ebebeb"></rect><rect x="116.12" y="220.27" width="3.96" height="35.78" style="fill:#ebebeb"></rect><rect x="95.47" y="262.49" width="139.59" height="40.67" style="fill:#e0e0e0"></rect><rect x="175.59" y="269.08" width="7.93" height="34.09" style="fill:#ebebeb"></rect><rect x="222.07" y="268.65" width="7.93" height="34.09" transform="translate(-45.24 42.54) rotate(-9.78)" style="fill:#ebebeb"></rect><rect x="147.07" y="273.57" width="7.93" height="29.6" style="fill:#ebebeb"></rect><rect x="165.3" y="273.57" width="7.93" height="29.6" style="fill:#ebebeb"></rect><rect x="211.3" y="273.57" width="7.93" height="29.6" style="fill:#ebebeb"></rect><rect x="189.31" y="273.06" width="7.93" height="29.6" transform="translate(-57.84 48.78) rotate(-12.53)" style="fill:#ebebeb"></rect><rect x="157.89" y="267.38" width="3.96" height="35.78" style="fill:#ebebeb"></rect><rect x="205.06" y="267.38" width="3.96" height="35.78" style="fill:#ebebeb"></rect><rect x="130.84" y="268.65" width="7.93" height="34.09" transform="translate(-46.56 27.05) rotate(-9.78)" style="fill:#ebebeb"></rect><rect x="120.07" y="273.57" width="7.93" height="29.6" style="fill:#ebebeb"></rect><rect x="98.08" y="273.06" width="7.93" height="29.6" transform="translate(-60.01 28.99) rotate(-12.53)" style="fill:#ebebeb"></rect><rect x="113.83" y="267.38" width="3.96" height="35.78" style="fill:#ebebeb"></rect><rect x="64.24" y="161.33" width="25.91" height="220.8" transform="translate(154.4 543.46) rotate(180)" style="fill:#e0e0e0"></rect></g><g id="freepik--Shadow--inject-57"><ellipse id="freepik--path--inject-57" cx="250" cy="416.24" rx="193.89" ry="11.32" style="fill:#f5f5f5"></ellipse></g><g id="freepik--Interface--inject-57"><path d="M240.09,96.05V412.17a4.62,4.62,0,0,1-4.69,4.62H76.28a4.14,4.14,0,0,1-4.19-4.24V95.67a3.73,3.73,0,0,1,3.59-3.88h37.78a2.94,2.94,0,0,1,2.69,1.88l1.73,4.26a2.94,2.94,0,0,0,2.69,1.86H191.7A2.91,2.91,0,0,0,194.39,98l1.73-4.28a3,3,0,0,1,2.69-1.89H236A4.22,4.22,0,0,1,240.09,96.05Z" style="fill:#00AEFF"></path><rect x="72.09" y="111.54" width="168" height="284.25" style="fill:#fff;opacity:0.30000000000000004;isolation:isolate"></rect><rect x="91.94" y="101.63" width="2.17" height="2.9" transform="translate(186.06 206.17) rotate(180)" style="fill:#fff;opacity:0.6000000000000001;isolation:isolate"></rect><rect x="88.4" y="100.67" width="2.17" height="3.86" transform="translate(178.97 205.2) rotate(180)" style="fill:#fff;opacity:0.6000000000000001;isolation:isolate"></rect><rect x="84.86" y="99.7" width="2.17" height="4.83" transform="translate(171.89 204.23) rotate(180)" style="fill:#fff;opacity:0.6000000000000001;isolation:isolate"></rect><rect x="81.31" y="98.73" width="2.17" height="5.8" transform="translate(164.8 203.26) rotate(180)" style="fill:#fff;opacity:0.6000000000000001;isolation:isolate"></rect><rect x="219.34" y="100.58" width="1.29" height="2.9" style="fill:#fff;opacity:0.6000000000000001;isolation:isolate"></rect><rect x="221.51" y="99.52" width="10.27" height="5.01" transform="translate(453.29 204.05) rotate(180)" style="fill:#fff;opacity:0.6000000000000001;isolation:isolate"></rect><rect x="77.58" y="180.12" width="67.07" height="67.07" style="fill:#fff;opacity:0.4"></rect><rect x="77.58" y="251.29" width="67.07" height="67.07" style="fill:#fff;opacity:0.4"></rect><rect x="149.7" y="251.29" width="67.07" height="67.07" style="fill:#fff;opacity:0.4"></rect><rect x="77.58" y="322.47" width="67.07" height="67.07" style="fill:#fff;opacity:0.4"></rect><rect x="149.7" y="180.12" width="67.07" height="67.07" style="fill:#fff;opacity:0.4"></rect><rect x="149.7" y="322.47" width="67.07" height="67.07" style="fill:#fff;opacity:0.4"></rect><rect x="226.79" y="180.12" width="6.13" height="209.42" style="fill:#00AEFF"></rect><rect x="225.92" y="186.81" width="7.86" height="22.85" rx="1.07" style="fill:#fff"></rect><rect x="77.45" y="118.8" width="156.33" height="54.67" style="fill:#00AEFF"></rect><path d="M129.33,196.6H92.24a1.14,1.14,0,0,0-1.14,1.14V221.3a1.14,1.14,0,0,0,1.14,1.13h37.09a1.14,1.14,0,0,0,1.13-1.13V197.74A1.14,1.14,0,0,0,129.33,196.6Zm.24,24H92V197.85h37.58Z" style="fill:#fff"></path><rect x="106.27" y="223.15" width="9.03" height="3.3" style="fill:#fff"></rect><path d="M119,227.26h-16.4a.6.6,0,0,0-.59.59v.93h17.58v-.93A.59.59,0,0,0,119,227.26Z" style="fill:#fff"></path><path d="M201.64,198.26H164.55a1.14,1.14,0,0,0-1.14,1.14v24.23h39.36V199.4A1.14,1.14,0,0,0,201.64,198.26Zm.24,24H164.3V199.5h37.58Z" style="fill:#fff"></path><path d="M188.35,224.52v.94a.63.63,0,0,1-.63.63h-9.25a.63.63,0,0,1-.63-.63v-.94H159.6v2a.62.62,0,0,0,.61.61H206a.61.61,0,0,0,.61-.61v-2Z" style="fill:#fff"></path><path d="M123,151.68l1.37-3a10.27,10.27,0,0,0,5.74,1.81c2.38,0,3.35-.8,3.35-1.86,0-3.26-10.11-1-10.11-7.49,0-3,2.38-5.41,7.33-5.41a11.67,11.67,0,0,1,6,1.54l-1.24,3a9.82,9.82,0,0,0-4.82-1.36c-2.39,0-3.31.89-3.31,2,0,3.2,10.12,1,10.12,7.38,0,2.91-2.42,5.39-7.39,5.39A12.41,12.41,0,0,1,123,151.68Z" style="fill:#fff"></path><path d="M151.7,149.66h-8.08l-1.54,3.73H138l7.75-17.4h4l7.78,17.4h-4.23Zm-1.27-3L147.67,140l-2.76,6.66Z" style="fill:#fff"></path><path d="M159.28,136h4v14.12H172v3.28H159.28Z" style="fill:#fff"></path><path d="M187.76,150.16v3.23H174.29V136h13.15v3.23h-9.15V143h8.08v3.13h-8.08v4Z" style="fill:#fff"></path><path d="M121.84,261.82H99.72a1.3,1.3,0,0,0-1.3,1.3v40.25a1.3,1.3,0,0,0,1.3,1.3h22.12a1.3,1.3,0,0,0,1.3-1.3V263.12A1.3,1.3,0,0,0,121.84,261.82Zm-.41,39.47h-21.3V265.2h21.3Z" style="fill:#fff"></path><path d="M130.91,340.87H90.66a1.3,1.3,0,0,0-1.3,1.3V370.3a1.3,1.3,0,0,0,1.3,1.29h40.25a1.29,1.29,0,0,0,1.29-1.29V342.17A1.3,1.3,0,0,0,130.91,340.87Zm-.35,29H91V342.59h39.56Z" style="fill:#fff"></path><path d="M202.89,272.27h-9a2.76,2.76,0,0,1-2.54-1.69l-.83-2a2.75,2.75,0,0,0-2.54-1.69h-9.73a2.76,2.76,0,0,0-2.55,1.69l-.82,2a2.77,2.77,0,0,1-2.55,1.69h-9A2.33,2.33,0,0,0,161,274.6v21.13a2.33,2.33,0,0,0,2.33,2.33h39.6a2.33,2.33,0,0,0,2.33-2.33V274.6A2.33,2.33,0,0,0,202.89,272.27Zm-22.11-3.19h4.63v2.09h-4.63Zm2.31,24.31a8.23,8.23,0,1,1,8.23-8.22A8.22,8.22,0,0,1,183.09,293.39ZM202.53,278H197.9v-2.1h4.63Z" style="fill:#fff"></path><path d="M170.09,342.58v27.07h26V342.58Zm24.56,24.61H171.54V345h23.11Z" style="fill:#fff"></path><path d="M205.06,342.54h-7.23v27.15h7.23a3.6,3.6,0,0,0,3.59-3.6v-20A3.59,3.59,0,0,0,205.06,342.54Zm-4.45,14.82a1.2,1.2,0,0,1,0-2.39,1.2,1.2,0,1,1,0,2.39Zm2.53-5a1.2,1.2,0,1,1-1.2,1.2A1.19,1.19,0,0,1,203.14,352.34Zm.1,7.55a1.2,1.2,0,1,1,1.2-1.2A1.19,1.19,0,0,1,203.24,359.89Zm2.53-2.63a1.2,1.2,0,1,1,0-2.39,1.2,1.2,0,0,1,0,2.39Z" style="fill:#fff"></path><path d="M161.13,342.54a3.6,3.6,0,0,0-3.6,3.59v20a3.6,3.6,0,0,0,3.6,3.6h7.23V342.54Zm-.71,14.82a1.2,1.2,0,1,1,1.2-1.19A1.19,1.19,0,0,1,160.42,357.36Zm2.52-5a1.2,1.2,0,1,1,0,2.39,1.2,1.2,0,0,1,0-2.39Zm.11,7.55a1.2,1.2,0,1,1,0-2.39,1.2,1.2,0,0,1,0,2.39Zm2.52-2.63a1.2,1.2,0,1,1,1.2-1.2A1.19,1.19,0,0,1,165.57,357.26Z" style="fill:#fff"></path><polygon points="122.53 186.48 124.56 187.16 126.08 185.66 127.88 186.82 129.73 185.74 131.18 187.31 133.24 186.73 134.26 188.62 136.4 188.56 136.91 190.64 139 191.12 138.98 193.26 140.88 194.25 140.34 196.32 141.93 197.74 140.88 199.61 142.07 201.39 140.6 202.94 141.31 204.96 139.49 206.09 139.68 208.22 137.64 208.87 137.29 210.98 135.15 211.1 134.29 213.06 132.19 212.64 130.87 214.32 128.94 213.39 127.23 214.69 125.6 213.31 123.63 214.15 122.38 212.41 120.27 212.73 119.49 210.73 117.36 210.52 117.11 208.39 115.1 207.65 115.39 205.53 113.63 204.32 114.43 202.33 113.03 200.72 114.3 199 113.34 197.08 115 195.73 114.55 193.64 116.49 192.74 116.57 190.6 118.68 190.22 119.29 188.17 121.43 188.32 122.53 186.48" style="fill:#00AEFF"></polygon><path d="M124.57,202c.41,1.12-.07,2.47-2,3.16a4.81,4.81,0,0,1-2.8.23L120,204a3.51,3.51,0,0,0,2.12-.1c.77-.29,1.13-.78.93-1.32s-.67-.68-1.55-.35l-.7.25-.38-1,.8-2.06-2.83,1-.46-1.24,4.66-1.72.37,1-.87,2.27A2,2,0,0,1,124.57,202Z" style="fill:#fff"></path><path d="M130.19,199.89c.44,1.18-.05,2.52-1.95,3.22a4.88,4.88,0,0,1-2.8.23l.17-1.4a3.51,3.51,0,0,0,2.12-.1c.77-.29,1.12-.79.92-1.33s-.66-.74-1.87-.29l-1.7.63L124,197l4.06-1.5.46,1.23-2.78,1,.36,1.3.55-.2C128.65,198.11,129.76,198.71,130.19,199.89Z" style="fill:#fff"></path><path d="M129.83,196.14a1.15,1.15,0,0,1,.64-1.59,1.28,1.28,0,0,1,.88,2.39A1.16,1.16,0,0,1,129.83,196.14Zm1.53-.56c-.17-.47-.43-.62-.7-.52s-.37.39-.2.85.44.62.7.52S131.53,196,131.36,195.58Zm1.71-1.94.74-.27-1.36,5.43-.74.28Zm.47,3.46a1.15,1.15,0,1,1,2.15-.8,1.15,1.15,0,1,1-2.15.8Zm1.52-.57c-.17-.45-.43-.62-.7-.52s-.37.39-.2.86.44.62.7.52S135.23,197,135.06,196.53Z" style="fill:#fff"></path><path d="M131.64,200.77a1,1,0,1,1,1.25.53A.94.94,0,0,1,131.64,200.77Zm1.45-.54a.56.56,0,1,0-1.05.39.56.56,0,1,0,1.05-.39Z" style="fill:#fff"></path><path d="M134,199.3l.17.45.78-.29.12.31-.79.29.23.62-.39.14-.63-1.69,1.28-.47.12.31Z" style="fill:#fff"></path><path d="M135.53,198.73l.16.44.78-.29.12.32-.78.29.23.62-.4.14-.62-1.69,1.28-.47.11.31Z" style="fill:#fff"></path><polygon points="122.53 261.64 124.56 262.32 126.08 260.82 127.88 261.98 129.73 260.9 131.18 262.47 133.24 261.89 134.26 263.77 136.4 263.72 136.91 265.8 139 266.28 138.98 268.42 140.88 269.41 140.34 271.48 141.93 272.9 140.88 274.77 142.07 276.55 140.6 278.1 141.31 280.12 139.49 281.25 139.68 283.38 137.64 284.02 137.29 286.14 135.15 286.25 134.29 288.21 132.19 287.8 130.87 289.48 128.94 288.55 127.23 289.85 125.6 288.47 123.63 289.31 122.38 287.57 120.27 287.89 119.49 285.89 117.36 285.68 117.11 283.55 115.1 282.81 115.39 280.69 113.63 279.47 114.43 277.49 113.03 275.88 114.3 274.15 113.34 272.24 115 270.89 114.55 268.8 116.49 267.9 116.57 265.76 118.68 265.38 119.29 263.33 121.43 263.48 122.53 261.64" style="fill:#00AEFF"></polygon><path d="M125,277a2.43,2.43,0,0,1-1.7,3.14c-1.84.68-3.4-.05-4.19-2.2s.06-4.09,2.06-4.83a3.89,3.89,0,0,1,2-.23l-.16,1.34a2.27,2.27,0,0,0-1.36.13,1.87,1.87,0,0,0-1.16,2.62,2.37,2.37,0,0,1,1.42-1.2A2.25,2.25,0,0,1,125,277Zm-1.46.62A1.08,1.08,0,0,0,122,277a1.12,1.12,0,0,0-.79,1.43,1.09,1.09,0,0,0,1.54.55A1.07,1.07,0,0,0,123.53,277.58Z" style="fill:#fff"></path><path d="M130.58,274.9c.44,1.18-.05,2.53-2,3.23a4.88,4.88,0,0,1-2.8.22L126,277a3.33,3.33,0,0,0,2.11-.1c.77-.28,1.13-.78.93-1.32s-.66-.74-1.87-.3l-1.7.63-1-3.87,4.06-1.5.45,1.24-2.77,1,.36,1.31.54-.2C129,273.13,130.15,273.72,130.58,274.9Z" style="fill:#fff"></path><path d="M130,271.25a1.15,1.15,0,1,1,1.52.8A1.14,1.14,0,0,1,130,271.25Zm1.53-.56c-.17-.47-.44-.62-.71-.52s-.37.4-.2.85.44.62.71.52S131.66,271.15,131.49,270.69Zm1.71-1.94.73-.27-1.36,5.43-.73.28Zm.46,3.46a1.15,1.15,0,1,1,1.52.8A1.15,1.15,0,0,1,133.66,272.21Zm1.53-.56c-.17-.46-.44-.63-.71-.52s-.37.39-.2.85.44.62.71.52S135.36,272.11,135.19,271.65Z" style="fill:#fff"></path><path d="M131.76,275.88a1,1,0,0,1,1.86-.68,1,1,0,0,1-1.86.68Zm1.46-.54a.56.56,0,1,0-1.06.39.56.56,0,1,0,1.06-.39Z" style="fill:#fff"></path><path d="M134.11,274.41l.16.45.79-.29.11.31-.78.29.23.62-.4.14-.62-1.69,1.28-.47.11.31Z" style="fill:#fff"></path><path d="M135.65,273.84l.17.45.78-.29.12.31-.79.29.23.62-.39.14-.63-1.69,1.28-.47.12.31Z" style="fill:#fff"></path><polygon points="192.87 261.58 194.9 262.26 196.43 260.75 198.23 261.92 200.08 260.84 201.53 262.41 203.59 261.83 204.6 263.71 206.74 263.66 207.26 265.74 209.35 266.22 209.33 268.36 211.23 269.34 210.68 271.41 212.28 272.84 211.23 274.71 212.42 276.49 210.94 278.03 211.65 280.05 209.84 281.18 210.02 283.32 207.98 283.96 207.63 286.07 205.5 286.19 204.63 288.15 202.53 287.73 201.21 289.41 199.28 288.49 197.58 289.79 195.94 288.41 193.97 289.25 192.73 287.5 190.61 287.82 189.84 285.83 187.71 285.61 187.46 283.49 185.45 282.75 185.73 280.63 183.97 279.41 184.78 277.43 183.37 275.81 184.64 274.09 183.69 272.18 185.34 270.82 184.89 268.73 186.84 267.84 186.92 265.7 189.03 265.31 189.64 263.26 191.77 263.41 192.87 261.58" style="fill:#00AEFF"></polygon><path d="M193.45,272.42l.37,1-.39,6.57-1.67.62.39-6.28-2.2.82.4,1.08-1.37.51-.86-2.34Z" style="fill:#fff"></path><path d="M200.68,274.93c.44,1.18-.05,2.52-2,3.23a4.87,4.87,0,0,1-2.8.22l.18-1.4a3.49,3.49,0,0,0,2.11-.1c.77-.29,1.12-.79.92-1.33s-.66-.74-1.87-.29l-1.7.63-1-3.87,4.06-1.5.46,1.23-2.78,1,.36,1.3.54-.2C199.14,273.15,200.25,273.75,200.68,274.93Z" style="fill:#fff"></path><path d="M200.22,271.22a1.15,1.15,0,0,1,.64-1.59,1.13,1.13,0,0,1,1.51.8,1.15,1.15,0,1,1-2.15.79Zm1.53-.57c-.17-.46-.43-.62-.7-.52s-.37.4-.2.86.44.62.7.52S201.92,271.12,201.75,270.65Zm1.71-1.93.74-.27-1.36,5.43-.74.27Zm.47,3.46a1.15,1.15,0,1,1,1.51.8A1.16,1.16,0,0,1,203.93,272.18Zm1.52-.57c-.17-.46-.43-.62-.7-.52s-.37.39-.2.86.44.62.7.52S205.62,272.07,205.45,271.61Z" style="fill:#fff"></path><path d="M202,275.85a1,1,0,1,1,1.25.53A.93.93,0,0,1,202,275.85Zm1.45-.54a.56.56,0,1,0-.32.74A.55.55,0,0,0,203.48,275.31Z" style="fill:#fff"></path><path d="M204.37,274.38l.17.44.78-.29.12.32-.79.29.23.61-.39.15-.63-1.69,1.28-.47.12.31Z" style="fill:#fff"></path><path d="M205.92,273.81l.16.44.78-.29.12.32-.78.29.22.61-.39.15-.62-1.69,1.28-.48.11.32Z" style="fill:#fff"></path><polygon points="122.53 331.63 124.56 332.31 126.08 330.8 127.88 331.96 129.73 330.89 131.18 332.46 133.24 331.88 134.26 333.76 136.4 333.71 136.91 335.79 139 336.27 138.98 338.41 140.88 339.39 140.34 341.46 141.93 342.89 140.88 344.75 142.07 346.53 140.6 348.08 141.31 350.1 139.49 351.23 139.68 353.37 137.64 354.01 137.29 356.12 135.15 356.24 134.29 358.2 132.19 357.78 130.87 359.46 128.94 358.54 127.23 359.84 125.6 358.46 123.63 359.3 122.38 357.55 120.27 357.87 119.49 355.88 117.36 355.66 117.11 353.54 115.1 352.8 115.39 350.68 113.63 349.46 114.43 347.48 113.03 345.86 114.3 344.14 113.34 342.23 115 340.87 114.55 338.78 116.49 337.89 116.57 335.75 118.68 335.36 119.29 333.31 121.43 333.46 122.53 331.63" style="fill:#00AEFF"></polygon><path d="M124.87,347.18c.47,1.25-.36,2.46-2.05,3.08s-3.09.25-3.55-1a1.8,1.8,0,0,1,.42-1.94,1.63,1.63,0,0,1-1.27-1.08c-.43-1.17.34-2.29,1.85-2.85s2.85-.22,3.28.95a1.66,1.66,0,0,1-.27,1.66A1.79,1.79,0,0,1,124.87,347.18ZM120,345.73c.18.5.7.67,1.32.44s.93-.7.75-1.21-.73-.68-1.36-.45S119.78,345.21,120,345.73Zm3.32,2c-.22-.59-.84-.77-1.61-.49s-1.1.82-.88,1.41.83.78,1.59.5S123.52,348.3,123.3,347.71Z" style="fill:#fff"></path><path d="M125.06,345.52c-.81-2.19,0-3.89,1.58-4.49s3.31.19,4.12,2.39.07,3.88-1.58,4.49S125.87,347.72,125.06,345.52Zm4.15-1.53c-.55-1.51-1.32-1.94-2.09-1.66s-1.06,1.11-.5,2.62,1.32,1.94,2.08,1.66S129.77,345.5,129.21,344Z" style="fill:#fff"></path><path d="M130.21,341.15a1.16,1.16,0,0,1,.64-1.6,1.28,1.28,0,1,1-.64,1.6Zm1.53-.57c-.17-.46-.43-.62-.7-.52s-.37.4-.2.85.44.62.7.53S131.91,341.05,131.74,340.58Zm1.71-1.93.74-.28-1.36,5.44-.74.27Zm.47,3.45a1.15,1.15,0,1,1,1.51.8A1.14,1.14,0,0,1,133.92,342.1Zm1.52-.56c-.17-.46-.43-.62-.7-.52s-.37.39-.2.85.44.62.7.52S135.61,342,135.44,341.54Z" style="fill:#fff"></path><path d="M132,345.77a1,1,0,1,1,1.25.54A.94.94,0,0,1,132,345.77Zm1.45-.54a.56.56,0,1,0-.32.74A.54.54,0,0,0,133.47,345.23Z" style="fill:#fff"></path><path d="M134.36,344.3l.17.45.78-.29.12.31-.79.29.23.62-.39.15-.63-1.7,1.28-.47.12.31Z" style="fill:#fff"></path><path d="M135.91,343.73l.16.45.78-.29.12.31-.78.29.22.62-.39.14-.62-1.69,1.28-.47.11.31Z" style="fill:#fff"></path><polygon points="192.87 186.42 194.9 187.1 196.43 185.59 198.23 186.76 200.08 185.68 201.53 187.25 203.59 186.67 204.6 188.55 206.74 188.5 207.26 190.58 209.35 191.06 209.33 193.2 211.23 194.19 210.68 196.25 212.28 197.68 211.23 199.55 212.42 201.33 210.94 202.88 211.65 204.89 209.84 206.03 210.02 208.16 207.98 208.8 207.63 210.92 205.5 211.03 204.63 212.99 202.53 212.57 201.21 214.26 199.28 213.33 197.58 214.63 195.94 213.25 193.97 214.09 192.73 212.35 190.61 212.67 189.84 210.67 187.71 210.45 187.46 208.33 185.45 207.59 185.73 205.47 183.97 204.25 184.78 202.27 183.37 200.65 184.64 198.93 183.69 197.02 185.34 195.67 184.89 193.57 186.84 192.68 186.92 190.54 189.03 190.16 189.64 188.1 191.77 188.26 192.87 186.42" style="fill:#00AEFF"></polygon><path d="M194.77,202c.44,1.17-.05,2.52-2,3.22a4.87,4.87,0,0,1-2.8.22l.17-1.4a3.37,3.37,0,0,0,2.12-.1c.77-.28,1.12-.78.92-1.32s-.66-.74-1.87-.3l-1.7.63-1-3.87,4.06-1.5.46,1.24-2.78,1,.36,1.31.54-.2C193.23,200.18,194.34,200.78,194.77,202Z" style="fill:#fff"></path><path d="M194.94,200.49c-.81-2.2-.05-3.89,1.58-4.5s3.32.2,4.13,2.39.06,3.89-1.58,4.49S195.75,202.68,194.94,200.49ZM199.1,199c-.56-1.51-1.33-1.94-2.1-1.65s-1.06,1.1-.5,2.61,1.32,1.94,2.08,1.66S199.65,200.46,199.1,199Z" style="fill:#fff"></path><path d="M200.4,196a1.16,1.16,0,0,1,.64-1.6,1.28,1.28,0,1,1-.64,1.6Zm1.53-.57c-.17-.46-.43-.62-.7-.52s-.37.4-.2.86.44.61.71.52S202.11,195.9,201.93,195.43Zm1.71-1.93.74-.28L203,198.66l-.74.27Zm.47,3.45a1.15,1.15,0,1,1,1.51.8A1.14,1.14,0,0,1,204.11,197Zm1.52-.56c-.17-.46-.43-.62-.7-.52s-.37.39-.2.85.44.62.7.52S205.8,196.85,205.63,196.39Z" style="fill:#fff"></path><path d="M202.21,200.62a1,1,0,1,1,1.25.54A.94.94,0,0,1,202.21,200.62Zm1.45-.54a.54.54,0,0,0-.72-.34.58.58,0,1,0,.72.34Z" style="fill:#fff"></path><path d="M204.55,199.15l.17.45.78-.29.12.31-.79.29.23.62-.39.15L204,199l1.28-.47.12.31Z" style="fill:#fff"></path><path d="M206.1,198.58l.16.45.78-.29.12.31-.78.29.23.62-.4.14-.62-1.69,1.28-.47.11.31Z" style="fill:#fff"></path><polygon points="192.87 331.56 194.9 332.24 196.43 330.74 198.23 331.9 200.08 330.82 201.53 332.4 203.59 331.81 204.6 333.7 206.74 333.64 207.26 335.72 209.35 336.2 209.33 338.34 211.23 339.33 210.68 341.4 212.28 342.82 211.23 344.69 212.42 346.47 210.94 348.02 211.65 350.04 209.84 351.17 210.02 353.3 207.98 353.95 207.63 356.06 205.5 356.18 204.63 358.14 202.53 357.72 201.21 359.4 199.28 358.47 197.58 359.77 195.94 358.39 193.97 359.23 192.73 357.49 190.61 357.81 189.84 355.81 187.71 355.6 187.46 353.47 185.45 352.73 185.73 350.61 183.97 349.4 184.78 347.41 183.37 345.8 184.64 344.08 183.69 342.16 185.34 340.81 184.89 338.72 186.84 337.82 186.92 335.68 189.03 335.3 189.64 333.25 191.77 333.4 192.87 331.56" style="fill:#00AEFF"></polygon><path d="M196.08,347.41l-1.09.4.52,1.39-1.51.56-.51-1.4-3.58,1.32-.39-1,1.58-5.38,1.62-.6-1.43,5.08,1.78-.66-.46-1.25,1.46-.53.46,1.24,1.08-.4Z" style="fill:#fff"></path><path d="M201.28,344.69c.44,1.18-.05,2.53-1.95,3.23a4.87,4.87,0,0,1-2.8.22l.17-1.4a3.37,3.37,0,0,0,2.12-.1c.77-.28,1.12-.78.92-1.32s-.66-.74-1.87-.3l-1.7.63-1-3.87,4.06-1.5.46,1.24-2.78,1,.36,1.31.54-.2C199.74,342.92,200.85,343.52,201.28,344.69Z" style="fill:#fff"></path><path d="M200.42,341.13a1.15,1.15,0,1,1,1.52.8A1.15,1.15,0,0,1,200.42,341.13Zm1.53-.56c-.17-.47-.43-.62-.7-.52s-.37.39-.2.85.44.62.7.52S202.12,341,202,340.57Zm1.71-1.94.74-.27L203,343.79l-.74.28Zm.47,3.46a1.15,1.15,0,1,1,2.15-.8,1.15,1.15,0,1,1-2.15.8Zm1.52-.57c-.17-.45-.43-.62-.7-.52s-.37.4-.2.86.44.62.7.52S205.82,342,205.65,341.52Z" style="fill:#fff"></path><path d="M202.23,345.76a1,1,0,1,1,1.25.53A.94.94,0,0,1,202.23,345.76Zm1.45-.54a.54.54,0,0,0-.72-.35.58.58,0,1,0,.72.35Z" style="fill:#fff"></path><path d="M204.57,344.29l.17.45.78-.29.12.31-.79.29.23.62-.39.14-.63-1.69,1.28-.47.12.31Z" style="fill:#fff"></path><path d="M206.12,343.72l.16.45.78-.29.12.31-.78.29.23.62-.4.14-.62-1.69,1.28-.47.11.31Z" style="fill:#fff"></path><path d="M113.78,164.41l3.86-23.24a1.14,1.14,0,0,0-.93-1.31l-36.59-6.07a1.13,1.13,0,0,0-1.31.93l-1.36,8.21v5.44L79.67,135l37.08,6.16L113,163.56l-35.57-5.91v1.88l35,5.81A1.13,1.13,0,0,0,113.78,164.41Z" style="fill:#fff;opacity:0.5"></path><rect x="92.15" y="160.13" width="3.3" height="9.03" transform="translate(-83.99 230.2) rotate(-80.57)" style="fill:#fff;opacity:0.5"></rect><path d="M101.48,168.41,85.3,165.72a.6.6,0,0,0-.68.49l-.15.92L101.81,170l.16-.92A.6.6,0,0,0,101.48,168.41Z" style="fill:#fff;opacity:0.5"></path><path d="M191.24,125.5l12.51,20.76,30-18.1v-1.62l-30,18.07-11.73-19.48,10.51-6.33h-2.41l-8.53,5.14A1.14,1.14,0,0,0,191.24,125.5Z" style="fill:#fff;opacity:0.5"></path><polygon points="233.78 119.83 233.16 118.8 232.12 118.8 233.78 121.55 233.78 119.83" style="fill:#fff;opacity:0.5"></polygon><path d="M226.05,135a.63.63,0,0,1-.21.87l-7.93,4.77a.62.62,0,0,1-.86-.21l-.49-.8L201,149l1,1.7a.59.59,0,0,0,.83.21l31-18.66v-3l-8.21,5Z" style="fill:#fff;opacity:0.5"></path><path d="M190.81,159.64l-8.31,4.45a.56.56,0,0,0-.23.75l4.63,8.63h.83l-4.4-8.2,8-4.28L198,173.47h.82l-7.28-13.6A.55.55,0,0,0,190.81,159.64Z" style="fill:#fff;opacity:0.5"></path><path d="M85,127.44,93.32,123a.56.56,0,0,0,.23-.75L91.7,118.8h-.82l1.6,3-8,4.28-3.91-7.28h-.82l4.5,8.41A.56.56,0,0,0,85,127.44Z" style="fill:#fff;opacity:0.5"></path><path d="M128.68,173l-8-5a.55.55,0,0,0-.76.18l-3.26,5.25h.86l2.55-4.12,6.65,4.12h2.22A.55.55,0,0,0,128.68,173Z" style="fill:#fff;opacity:0.5"></path><path d="M221.79,149.17l-9.34,16.71a.87.87,0,0,0,.34,1.2l11.43,6.39h2.39l-13.05-7.29L222.63,150l11.15,6.23v-1.33l-10.79-6A.88.88,0,0,0,221.79,149.17Z" style="fill:#fff;opacity:0.5"></path><path d="M133.43,129.49l18.49,6a1.15,1.15,0,0,0,1.45-.73l3.23-9.87a1.14,1.14,0,0,0-.73-1.44l-4.22-1.38a1.36,1.36,0,0,1-.93-1.18l-.08-1a1.35,1.35,0,0,0-.78-1.1h-3.31l1.64.53-.32,1-2.17-.71.27-.8h-3.51a1.33,1.33,0,0,1-.88,0l-.07,0h-5.79l-3,9.25A1.14,1.14,0,0,0,133.43,129.49ZM153,124.43l2.16.71-.32,1-2.16-.71Zm-12.17.81a4,4,0,1,1,2.58,5.1A4,4,0,0,1,140.81,125.24Z" style="fill:#fff;opacity:0.5"></path><polygon points="147.81 166.62 149.88 173.47 150.73 173.47 148.99 167.71 161.47 163.94 164.35 173.47 165.2 173.47 161.85 162.37 147.81 166.62" style="fill:#fff;opacity:0.5"></polygon><path d="M172.47,173l-3.26-10.77a2,2,0,0,0-2.53-1.36l-3.9,1.18,3.44,11.4h6.33A3.54,3.54,0,0,0,172.47,173Zm-5.77-3.4a.67.67,0,1,1,.45-.84A.67.67,0,0,1,166.7,169.62Zm.09-2.28a.68.68,0,0,1,1.3-.39.68.68,0,0,1-1.3.39Zm1.74,3.21a.67.67,0,1,1-.39-1.29.68.68,0,0,1,.84.45A.66.66,0,0,1,168.53,170.55Zm.94-1.83a.66.66,0,0,1-.84-.45.67.67,0,0,1,.45-.84.67.67,0,0,1,.39,1.29Z" style="fill:#fff;opacity:0.5"></path><path d="M143,168.06a2,2,0,0,0-1.36,2.52l.88,2.89h2.63a.69.69,0,0,1,.43-.42.68.68,0,0,1,.82.42h2.5l-2-6.59Z" style="fill:#fff;opacity:0.5"></path><polygon points="182.31 118.8 179.57 118.8 181.06 120.16 182.31 118.8" style="fill:#fff;opacity:0.5"></polygon><path d="M177.66,123.91l2.76-3-2.3-2.1h-3.65a.67.67,0,0,1-.16.58.68.68,0,0,1-.95,0,.66.66,0,0,1-.19-.62h-.79a.67.67,0,0,1-.12.71.68.68,0,0,1-.95,0,.67.67,0,0,1-.16-.75h-2.08L174.8,124A2,2,0,0,0,177.66,123.91Z" style="fill:#fff;opacity:0.5"></path><path d="M105.25,126.9l-1.4-.59a.78.78,0,0,1-.46-.77l-1.47-.63-.08.2a2.61,2.61,0,0,0,1.37,3.42l3.7,1.57a2.6,2.6,0,0,0,3.42-1.37l.08-.2-4.29-1.83A.75.75,0,0,1,105.25,126.9Z" style="fill:#fff;opacity:0.5"></path><path d="M109.32,124.46l-3.7-1.57a2.6,2.6,0,0,0-3.42,1.37l-.08.2,1.47.63a.77.77,0,0,1,.87-.21l1.4.6a.78.78,0,0,1,.46.77l4.29,1.82.08-.19A2.6,2.6,0,0,0,109.32,124.46Z" style="fill:#fff;opacity:0.5"></path></g><g id="freepik--Character--inject-57"><polygon points="184.44 416.79 179.03 416.79 180.86 398.71 188.1 398.71 184.44 416.79" style="fill:#263238"></polygon><polygon points="240.25 416.79 234.84 416.79 236.67 398.71 243.91 398.71 240.25 416.79" style="fill:#263238"></polygon><polygon points="275.1 416.79 280.51 416.79 278.68 398.71 271.44 398.71 275.1 416.79" style="fill:#263238"></polygon><polygon points="219.28 416.79 224.7 416.79 222.87 398.71 215.63 398.71 219.28 416.79" style="fill:#263238"></polygon><polygon points="353.79 416.79 359.2 416.79 357.37 398.71 350.13 398.71 353.79 416.79" style="fill:#263238"></polygon><polygon points="297.97 416.79 303.39 416.79 301.56 398.71 294.31 398.71 297.97 416.79" style="fill:#263238"></polygon><polygon points="275.1 416.79 280.51 416.79 278.68 398.71 271.44 398.71 275.1 416.79" style="fill:#fff;opacity:0.2;isolation:isolate"></polygon><polygon points="219.28 416.79 224.7 416.79 222.87 398.71 215.63 398.71 219.28 416.79" style="fill:#fff;opacity:0.2;isolation:isolate"></polygon><polygon points="353.79 416.79 359.2 416.79 357.37 398.71 350.13 398.71 353.79 416.79" style="fill:#fff;opacity:0.2;isolation:isolate"></polygon><polygon points="297.97 416.79 303.39 416.79 301.56 398.71 294.31 398.71 297.97 416.79" style="fill:#fff;opacity:0.2;isolation:isolate"></polygon><polygon points="111.24 416.79 105.83 416.79 107.66 398.71 114.9 398.71 111.24 416.79" style="fill:#263238"></polygon><polygon points="167.06 416.79 161.64 416.79 163.47 398.71 170.72 398.71 167.06 416.79" style="fill:#263238"></polygon><path d="M249.5,357.05H362l17.14-88.55a15.68,15.68,0,0,0-15.4-18.67H283.2a15.68,15.68,0,0,0-15.4,12.7Z" style="fill:#263238"></path><path d="M330.07,357.05h32l17.14-88.55a15.68,15.68,0,0,0-15.4-18.67h0a15.68,15.68,0,0,0-15.4,12.7Z" style="fill:#263238"></path><g style="opacity:0.6000000000000001;isolation:isolate"><path d="M249.5,357.05H362l17.14-88.55a15.68,15.68,0,0,0-15.4-18.67H283.2a15.68,15.68,0,0,0-15.4,12.7Z" style="fill:#fff"></path><path d="M330.07,357.05h32l17.14-88.55a15.68,15.68,0,0,0-15.4-18.67h0a15.68,15.68,0,0,0-15.4,12.7Z" style="fill:#fff"></path></g><path d="M249.49,356.88h80.58l18.3-94.43a15.61,15.61,0,0,1,15.4-12.62H283.2a15.62,15.62,0,0,0-15.4,12.62Z" style="fill:#fff;opacity:0.6000000000000001;isolation:isolate"></path><rect x="175.06" y="355.97" width="191.23" height="46.66" rx="7.91" style="fill:#263238"></rect><rect x="175.06" y="355.97" width="118.03" height="46.66" rx="7.91" style="fill:#fff;opacity:0.6000000000000001;isolation:isolate"></rect><rect x="175.06" y="355.97" width="191.23" height="46.66" rx="7.91" style="fill:#fff;opacity:0.6000000000000001;isolation:isolate"></rect><rect x="98.2" y="355.97" width="191.23" height="46.66" rx="7.91" style="fill:#263238"></rect><rect x="98.2" y="355.97" width="118.03" height="46.66" rx="7.91" style="fill:#fff;opacity:0.6000000000000001;isolation:isolate"></rect><rect x="98.2" y="355.97" width="191.23" height="46.66" rx="7.91" style="fill:#fff;opacity:0.6000000000000001;isolation:isolate"></rect><path d="M230.48,334c.09.16.19.22.3.21,3.19-.58,11.73,4.09,22.13,9.49l2.92,1.5c.32.18.65.34,1,.51,5.25,2.68,10.82,5.39,16.33,7.6,6.48,2.63,12.88,4.58,18.51,5,.76.06,1.51.09,2.24.09,25.28,0,17-41.72,17-41.72l-30.19-2.31-3.56,6.14-1.93,3.32-4.36-1.17c-2.18-.59-5.44-1.35-9.18-2.14l-.87-.19c-1.25-.27-2.56-.54-3.9-.8-9.85-2-21.16-3.93-25.35-4C228.61,315.51,229.13,332,230.48,334Z" style="fill:#e4897b"></path><path d="M261.14,318.86l-5.87,29s20.18,16.39,37.52,10S304.68,322,304.68,322l-21.23-13.37L275,320.43Z" style="fill:#00AEFF"></path><polygon points="262.14 318.29 256.04 349.71 252.38 346.82 257.26 317.68 262.14 318.29" style="fill:#00AEFF"></polygon><polygon points="252.38 346.82 256.04 349.71 256.25 348.62 256.82 345.66 259.3 332.88 261.72 320.47 261.98 319.07 262.14 318.29 257.25 317.69 256.95 319.48 254.66 333.15 252.91 343.65 252.38 346.82" style="fill:#fff;opacity:0.4;isolation:isolate"></polygon><path d="M230.48,334c.09.16.19.22.3.21,3.19-.58,11.73,4.09,22.13,9.49l-.53,3.17,3.66,2.89.21-1.2a81.34,81.34,0,0,0,12.28,7h0l4.62-2.35,6.68-3.49-2.75-25-4,5.49s-9.24,2.24-13.82,2.68l-1,.1c-1.26.1-2.48.17-3.63.18-.8,0-1.56,0-2.28-.07C244.51,332.53,236,332.24,230.48,334Z" style="opacity:0.2;isolation:isolate"></path><path d="M167,350.8l.29,6.05.7,0c.89.06,2.58.14,4.88.25,13,.6,45.11,1.73,58.81-1l63,1.21-13.84-24.24-86.59,13.47-26.65,4.15Z" style="fill:#e4897b"></path><path d="M156.55,343.6c.11,2.36.2,4.49.29,6.46.13,2.69.23,5.09.34,7.37.19,4,3.45,1.34,10.52.85.17,0,.23-.57.24-1.4,0-1.76-.25-4.74-.4-6.17l-.08-.82a30.19,30.19,0,0,1-2.45-2.54,20.63,20.63,0,0,1-4.42-7.33C159.18,335.07,156.3,338,156.55,343.6Z" style="fill:#263238"></path><path d="M263.58,334.91l7.1,24.78,13.94-1.34s40.08,10.58,28.94-46.88l-30.11-2.89-8.78,22.9Z" style="fill:#00AEFF"></path><polygon points="265.11 333.56 273.12 360.08 268.39 360.08 261.37 334.91 265.11 333.56" style="fill:#00AEFF"></polygon><polygon points="265.11 333.56 273.12 360.08 268.39 360.08 261.37 334.91 265.11 333.56" style="fill:#fff;opacity:0.4;isolation:isolate"></polygon><path d="M156.84,350.06c.13,2.69.23,5.09.34,7.37.19,4,3.45,1.34,10.52.85.17,0,.23-.57.24-1.4.89.06,2.58.14,4.88.25,6.68-3.76,16-8.13,21.37-10.57l-26.65,4.15-.08-.82a30.19,30.19,0,0,1-2.45-2.54Z" style="opacity:0.2;isolation:isolate"></path><path d="M231.59,315.53c1.1,0,.35,18.41-.8,18.62-4.92.89-72,20.68-72,20.68l-2-5.87S220.61,315.47,231.59,315.53Z" style="fill:#e4897b"></path><path d="M159.62,356c.65-.23-2.51-8-2.51-8s-6.6-3.24-9.3-7.62-4.67-.78-2.9,4.53,3.11,9.37,4.37,13.15S153,358.35,159.62,356Z" style="fill:#263238"></path><polygon points="314.04 311.32 314.34 315.89 283.18 309.29 284.52 304.24 314.04 311.32" style="fill:#263238"></polygon><rect x="303.52" y="308.21" width="1.5" height="7.64" transform="translate(546.53 674.33) rotate(-169.49)" style="fill:#00AEFF"></rect><rect x="290.66" y="306.9" width="6.63" height="5.03" transform="translate(512.73 675.89) rotate(-167.3)" style="fill:#fff"></rect><rect x="285.51" y="303.77" width="1.5" height="7.64" transform="translate(511.65 662.21) rotate(-169.5)" style="fill:#00AEFF"></rect><path d="M297.2,224s15.78-7.68,21,8.84-1.47,27.93-1.47,27.93-18.27-4.69-33.66-1.42c0,0,3.32-14.08,2.53-22.16S297.2,224,297.2,224Z" style="fill:#263238"></path><path d="M284.88,261.4c-3.47.16-18,19.68-18,19.68l-5.4-7s-8.33,16.18-4.21,23.88,25.82-13.35,25.82-13.35Z" style="fill:#00AEFF"></path><path d="M284.88,261.4,283.45,277l-.37,7.62s-3.57,3.45-8.08,7.05c-6.62,5.29-15.29,10.87-17.74,6.3-4.12-7.7,4.21-23.88,4.21-23.88l5.4,7,0-.05C267.73,279.85,281.52,261.55,284.88,261.4Z" style="fill:#fff;opacity:0.6000000000000001;isolation:isolate"></path><path d="M283.45,277l-.37,7.62s-3.57,3.45-8.08,7.05c-.43-9.14,8.08-22.45,8.08-22.45Z" style="opacity:0.2;isolation:isolate"></path><path d="M266.87,281.08l.77,1.49-2.26,8.81s6.24-5.69,2.26-11.25Z" style="opacity:0.2;isolation:isolate"></path><path d="M284.25,305.14,314,311.47s-.09-16.48,2.24-25.58c.76-2.95,1.71-6.26,2.92-10.11.51-1.62,1.07-3.34,1.69-5.18s1.17-3.54,1.83-5.45a86.59,86.59,0,0,0-12.24-2.95,93.32,93.32,0,0,0-13.25-1.4c-5.73-.05-12.33.6-12.33.6s-.93.23-1.53,6.31C282.81,273.42,283.06,284.36,284.25,305.14Z" style="fill:#00AEFF"></path><path d="M284.25,305.13,314,311.47s0-.36,0-1c.13-3.83.21-16.77,2.21-24.57.54-2.1,1.18-4.4,1.95-6.94.3-1,.62-2.06,1-3.16.51-1.63,1.07-3.35,1.68-5.19s1.17-3.53,1.84-5.44a88.7,88.7,0,0,0-12.24-3,95,95,0,0,0-13.25-1.4c-5.74,0-12.33.6-12.33.6s-.94.23-1.53,6.31C282.81,273.43,283.06,284.36,284.25,305.13Z" style="fill:#fff;opacity:0.6000000000000001;isolation:isolate"></path><path d="M299.65,267.32c7.27-.93,9.46-4,9.46-4-3-2.8-2.44-6.94-1.68-9.52a15.47,15.47,0,0,1,.9-2.38L299.57,253a25.19,25.19,0,0,1,.34,3.69,11.31,11.31,0,0,1-.24,2.71c-.6,2.61-2.09,2.65-2.09,2.65C296,264.94,299.65,267.32,299.65,267.32Z" style="fill:#e4897b"></path><path d="M299.91,256.71a11.31,11.31,0,0,1-.24,2.71c3.47-.46,6.11-3.24,7.76-5.66a15.47,15.47,0,0,1,.9-2.38L299.57,253A25.19,25.19,0,0,1,299.91,256.71Z" style="opacity:0.2;isolation:isolate"></path><path d="M297.58,228.45c-8.06,1.65-9.77,6.49-8.67,14.91,1.38,10.53,5.19,17.43,14.81,13.16C316.79,250.72,311,225.72,297.58,228.45Z" style="fill:#e4897b"></path><path d="M294,241.85a17.67,17.67,0,0,1-1.66,3.82,2.27,2.27,0,0,0,2.31.48Z" style="fill:#de5753"></path><path d="M297.77,234.6a4.31,4.31,0,0,1,3.75.51" style="fill:none;stroke:#263238;stroke-linecap:round;stroke-linejoin:round;stroke-width:0.7246800000000001px"></path><path d="M291.85,235.46a3.83,3.83,0,0,0-3.08,1.32" style="fill:none;stroke:#263238;stroke-linecap:round;stroke-linejoin:round;stroke-width:0.7246800000000001px"></path><path d="M309.16,240.23s-5.12-5.85-5.59-11.07c0,0-17.3-3.27-14.78,13.1,0,0-4.5-14.07,9.29-17.22s17.86,17.13,11.94,24.62C310,249.66,312.33,243.9,309.16,240.23Z" style="fill:#263238"></path><path d="M308.19,242.2a3.61,3.61,0,0,1,3.14-4c2.56-.24,4.79,4.64-1.17,7.14C309.31,245.7,308.63,244.93,308.19,242.2Z" style="fill:#e4897b"></path><path d="M294.9,248.56a21.13,21.13,0,0,1,1.89,2.35l.48-.23c2.16-1.06,2.81-2.27,2.88-3.28a3.42,3.42,0,0,0-.71-2.17,11.36,11.36,0,0,1-3.81,3C295.19,248.43,294.9,248.56,294.9,248.56Z" style="fill:#263238"></path><path d="M295.63,248.19l.58.68c2-1,3.32-2,3.66-2.91a3,3,0,0,0-.43-.73A11.36,11.36,0,0,1,295.63,248.19Z" style="fill:#fff"></path><path d="M297.27,250.68c2.16-1.06,2.81-2.27,2.88-3.28a7.72,7.72,0,0,0-2.16,1.65A2.87,2.87,0,0,0,297.27,250.68Z" style="fill:#de5753"></path><path d="M297.87,229s5.95,12.59,14.26,10.72-8-16-8-16-14.67-2.36-19.92,6.24,4.57,12.3,4.57,12.3S286.18,232.1,297.87,229Z" style="fill:#263238"></path><path d="M297.76,228.07s.86,9.25,8.11,11.08" style="fill:none;stroke:#263238;stroke-linecap:round;stroke-linejoin:round;stroke-width:0.5px"></path><path d="M298.74,240.62c0,.64.39,1.14.82,1.13s.75-.55.72-1.19-.39-1.14-.81-1.13S298.72,240,298.74,240.62Z" style="fill:#263238"></path><path d="M299.65,239.46l-1.42-.49S299,240.11,299.65,239.46Z" style="fill:#263238"></path><path d="M290.79,240.81c0,.64.39,1.14.82,1.12s.75-.55.72-1.19-.39-1.14-.82-1.12S290.76,240.17,290.79,240.81Z" style="fill:#263238"></path><path d="M291.69,239.64l-1.41-.49S291,240.29,291.69,239.64Z" style="fill:#263238"></path><path d="M279.58,274.29a.73.73,0,0,1-.75.84h-8.37a1,1,0,0,1-.94-.84l-1.87-16.5a.84.84,0,0,1,.76-1h8.36a1.07,1.07,0,0,1,.94,1Z" style="fill:#263238"></path><path d="M276.79,257.68l1.89,16.67a.63.63,0,0,1-.66.78h-7.09c-.48,0-1.35-.26-1.4-.73l-1.89-16.72c-.06-.47.76-.84,1.23-.84H276A.86.86,0,0,1,276.79,257.68Z" style="fill:#fff;opacity:0.5"></path><path d="M262.06,275.67l4.36-7.4a24.54,24.54,0,0,1,.37-4.8c.38-.92,4.65-3,5.49-2.67s1.15,7.93.38,9-3.43,2.17-3.43,2.17l.18,1.45-2.54,7.7Z" style="fill:#e4897b"></path><polygon points="260.31 274.83 261.76 273.38 268.62 281.08 267.64 284.13 260.31 274.83" style="fill:#00AEFF"></polygon><path d="M295.08,287.13s8.07,18.39,18.48,24.34c.13-3.83.7-17.78,2.7-25.58.54-2.1,1.18-4.4,1.95-6.94L315,275.14s-2.19,6.81-1.22,12.72l-12.14-7.44Z" style="opacity:0.2;isolation:isolate"></path><path d="M302.89,282.91,293,275.13a34.82,34.82,0,0,0-2.1-4.89c-.61-.72-9.29-3.93-10-4s0,7.12,1.09,8.35,8.08,3.64,8.08,3.64L300.41,288Z" style="fill:#e4897b"></path><path d="M322.7,265.15c5.82,2.92,8.41,35.78-1.69,41.45s-25.21-20-25.21-20l5.87-6.23s12.3,10.3,13.78,9.36-.2-11-.2-11-1.73-3.05,1.91-7.84S322.7,265.15,322.7,265.15Z" style="fill:#00AEFF"></path><path d="M322.7,265.15c5.82,2.92,8.41,35.78-1.69,41.45s-25.21-20-25.21-20l5.87-6.23s12.3,10.3,13.78,9.36-.2-11-.2-11-1.73-3.05,1.91-7.84S322.7,265.15,322.7,265.15Z" style="fill:#fff;opacity:0.6000000000000001;isolation:isolate"></path><polygon points="295.69 288.92 293.93 287.87 300.52 278.21 302.94 279.55 295.69 288.92" style="fill:#00AEFF"></polygon></g><g id="freepik--Table--inject-57"><path d="M355.71,305.24h31a.74.74,0,0,1,.74.74v26.83a0,0,0,0,1,0,0H355a0,0,0,0,1,0,0V306A.74.74,0,0,1,355.71,305.24Z" style="fill:#263238"></path><rect x="355.37" y="306.1" width="30.85" height="25.86" rx="1.22" style="fill:#00AEFF"></rect><rect x="355.37" y="306.1" width="30.85" height="25.86" rx="1.22" style="opacity:0.2;isolation:isolate"></rect><rect x="353.37" y="306.1" width="30.85" height="25.86" rx="1.22" style="fill:#00AEFF"></rect><rect x="353.37" y="306.1" width="30.85" height="25.86" rx="1.22" style="fill:#fff;opacity:0.7000000000000001"></rect><path d="M354.59,306.1H383a1.22,1.22,0,0,1,1.22,1.22V315a0,0,0,0,1,0,0H353.37a0,0,0,0,1,0,0v-7.67A1.22,1.22,0,0,1,354.59,306.1Z" style="fill:#00AEFF"></path><path d="M359.87,313.21v-2.49l-1.23,2.06h-.31l-1.24-2v2.46h-.66v-3.76H357l1.49,2.49,1.47-2.49h.57v3.76Z" style="fill:#fff"></path><path d="M361.27,311.33a2,2,0,1,1,2,1.93A1.93,1.93,0,0,1,361.27,311.33Zm3.35,0a1.32,1.32,0,1,0-1.32,1.32A1.28,1.28,0,0,0,364.62,311.33Z" style="fill:#fff"></path><path d="M369.4,309.45v3.76h-.57l-2.08-2.55v2.55h-.69v-3.76h.57l2.08,2.54v-2.54Z" style="fill:#fff"></path><path d="M370.41,309.45h1.64a1.89,1.89,0,1,1,0,3.76h-1.64Zm1.61,3.17a1.29,1.29,0,1,0,0-2.58h-.92v2.58Z" style="fill:#fff"></path><path d="M377.22,312.34h-1.88l-.37.87h-.72l1.69-3.76h.69l1.7,3.76h-.73Zm-.23-.55-.71-1.64-.7,1.64Z" style="fill:#fff"></path><path d="M380.2,311.88v1.33h-.7v-1.32L378,309.45h.74l1.1,1.83,1.12-1.83h.68Z" style="fill:#fff"></path><path d="M367.9,325c0,1.62-1.22,3-3.8,3a6,6,0,0,1-3.61-1.11l.77-1.39a4.47,4.47,0,0,0,2.81.95c1.28,0,2-.57,2-1.46s-.63-1.42-2.08-1.42h-.88v-1.22l2.18-2.6H361v-1.49h6.54v1.19l-2.33,2.77C367,322.52,367.9,323.6,367.9,325Z" style="fill:#00AEFF"></path><path d="M369.06,323.12c0-3.16,1.73-4.94,4-4.94s4,1.78,4,4.94-1.73,4.94-4,4.94S369.06,326.27,369.06,323.12Zm6.23,0c0-2.32-.9-3.39-2.22-3.39s-2.21,1.07-2.21,3.39.91,3.39,2.21,3.39S375.29,325.44,375.29,323.12Z" style="fill:#00AEFF"></path><path d="M362.62,307.37a.8.8,0,0,1-.8-.8v-1.31a.8.8,0,0,1,.8-.8h.87a.8.8,0,0,1,.8.8v.84H365v-.84a1.52,1.52,0,0,0-1.51-1.51h-.87a1.51,1.51,0,0,0-1.5,1.51v1.31a1.51,1.51,0,0,0,1.5,1.51.36.36,0,1,0,0-.71Z" style="fill:#263238"></path><path d="M372.62,307.37a.8.8,0,0,1-.8-.8v-1.31a.8.8,0,0,1,.8-.8h.87a.8.8,0,0,1,.8.8v.84H375v-.84a1.52,1.52,0,0,0-1.51-1.51h-.87a1.51,1.51,0,0,0-1.5,1.51v1.31a1.51,1.51,0,0,0,1.5,1.51.36.36,0,1,0,0-.71Z" style="fill:#263238"></path><path d="M389.22,333.77v-.34a.83.83,0,0,0-.84-.84H353.53a.84.84,0,0,0-.84.84v.34Z" style="fill:#263238"></path><rect x="399.09" y="283.75" width="3.78" height="50.44" style="fill:#263238"></rect><polygon points="421.17 301.08 380.78 301.08 384.05 272.5 417.9 272.5 421.17 301.08" style="fill:#00AEFF"></polygon><g style="opacity:0.6000000000000001;isolation:isolate"><polygon points="421.17 301.08 380.78 301.08 384.05 272.5 417.9 272.5 421.17 301.08" style="fill:#fff"></polygon></g><polygon points="402.87 312.59 402.87 334.19 399.08 334.19 399.08 310.22 402.87 312.59" style="fill:#fff;opacity:0.2"></polygon><polygon points="394.36 331.97 407.6 331.97 409.96 334.19 392 334.19 394.36 331.97" style="fill:#00AEFF"></polygon><polygon points="394.36 331.97 407.6 331.97 409.96 334.19 392 334.19 394.36 331.97" style="fill:#fff;opacity:0.2"></polygon><rect x="347.07" y="333.82" width="74.3" height="82.97" style="fill:#00AEFF"></rect><rect x="398.58" y="333.82" width="22.8" height="82.97" style="opacity:0.2;isolation:isolate"></rect><rect x="350.77" y="337.5" width="42.73" height="16.07" style="fill:#fff;opacity:0.2"></rect><rect x="350.77" y="357.5" width="42.73" height="16.07" style="fill:#fff;opacity:0.2"></rect><rect x="350.77" y="377.5" width="42.73" height="34.73" style="fill:#fff;opacity:0.2"></rect><path d="M372.72,340.6a1.69,1.69,0,0,1-3.37,0,1.69,1.69,0,1,1,3.37,0Z" style="opacity:0.2;isolation:isolate"></path><path d="M372.72,359.89a1.69,1.69,0,0,1-3.37,0,1.69,1.69,0,1,1,3.37,0Z" style="opacity:0.2;isolation:isolate"></path><path d="M354.52,394.86a1.69,1.69,0,1,1-1.69-1.69A1.69,1.69,0,0,1,354.52,394.86Z" style="opacity:0.2;isolation:isolate"></path></g></svg>