<svg class="prefix__animated" id="prefix__freepik_stories-shopping" xmlns="http://www.w3.org/2000/svg" viewBox="0 0 500 500" version="1.1"><style>@keyframes slideRight{0%{opacity:0;transform:translateX(30px)}to{opacity:1;transform:translateX(0)}}@keyframes slideLeft{0%{opacity:0;transform:translateX(-30px)}to{opacity:1;transform:translateX(0)}}svg#prefix__freepik_stories-shopping:not(.prefix__animated) .prefix__animable{opacity:0}</style><g id="prefix__freepik--background-complete--inject-196" class="prefix__animable" style="transform-origin:250px 228.23px"><path style="transform-origin:433.34px 398.615px" id="prefix__el2n9outyzw76" class="prefix__animable" fill="#ebebeb" d="M416.78 398.49h33.12v.25h-33.12z"/><path style="transform-origin:326.875px 401.335px" id="prefix__elv20zulxq2d" class="prefix__animable" fill="#ebebeb" d="M322.53 401.21h8.69v.25h-8.69z"/><path style="transform-origin:406.185px 389.335px" id="prefix__elpnm9z28ur5i" class="prefix__animable" fill="#ebebeb" d="M396.59 389.21h19.19v.25h-19.19z"/><path style="transform-origin:74.055px 391.015px" id="prefix__ele9gh5bsfhse" class="prefix__animable" fill="#ebebeb" d="M52.46 390.89h43.19v.25H52.46z"/><path style="transform-origin:107.725px 391.015px" id="prefix__el15qq6qqgvi4" class="prefix__animable" fill="#ebebeb" d="M104.56 390.89h6.33v.25h-6.33z"/><path style="transform-origin:178.31px 395.235px" id="prefix__elu564dbhp3qc" class="prefix__animable" fill="#ebebeb" d="M131.47 395.11h93.68v.25h-93.68z"/><path style="transform-origin:250px 382.525px" id="prefix__els6ou0nj20i" class="prefix__animable" fill="#ebebeb" d="M0 382.4h500v.25H0z"/><path d="M237 337.8H43.91a5.71 5.71 0 01-5.7-5.71V60.66a5.71 5.71 0 015.7-5.66H237a5.71 5.71 0 015.71 5.71v271.38a5.71 5.71 0 01-5.71 5.71zM43.91 55.2a5.46 5.46 0 00-5.45 5.46v271.43a5.46 5.46 0 005.45 5.46H237a5.47 5.47 0 005.46-5.46V60.66A5.47 5.47 0 00237 55.2z" style="transform-origin:140.46px 196.4px" id="prefix__elflgxt01gl57" class="prefix__animable" fill="#ebebeb"/><path d="M453.31 337.8h-193.1a5.72 5.72 0 01-5.71-5.71V60.66a5.72 5.72 0 015.71-5.66h193.1a5.71 5.71 0 015.69 5.66v271.43a5.71 5.71 0 01-5.69 5.71zM260.21 55.2a5.47 5.47 0 00-5.46 5.46v271.43a5.47 5.47 0 005.46 5.46h193.1a5.47 5.47 0 005.46-5.46V60.66a5.47 5.47 0 00-5.46-5.46z" style="transform-origin:356.75px 196.4px" id="prefix__elbtwtk1lrdb" class="prefix__animable" fill="#ebebeb"/><path style="transform-origin:91.39px 308.68px" id="prefix__eli3m5twn4sqm" class="prefix__animable" fill="#f5f5f5" d="M38.46 234.71h105.86v147.94H38.46z"/><path style="transform-origin:79.335px 196.395px" id="prefix__el1ap18906gd2" class="prefix__animable" fill="#ebebeb" d="M45.31 169.37h68.05v54.05H45.31z"/><path style="transform-origin:79.485px 199.305px" id="prefix__elgst4v6iibot" class="prefix__animable" fill="#fafafa" d="M71.28 191.1h16.41v16.41H71.28z"/><path style="transform-origin:89.77px 229.065px" id="prefix__elvz3hppaykpi" class="prefix__animable" fill="#e6e6e6" d="M52.46 223.42h74.62v11.29H52.46z"/><path style="transform-origin:79.34px 215.57px" id="prefix__elcjdq5nqdclf" class="prefix__animable" fill="#e0e0e0" d="M71.28 207.51H87.4v16.12H71.28z"/><path style="transform-origin:104.415px 173.19px" id="prefix__els8jiliymcgi" class="prefix__animable" fill="#f5f5f5" d="M100.47 156.74h7.89v32.9h-7.89z"/><path style="transform-origin:104.855px 153.66px" id="prefix__eltczrvzqdudk" class="prefix__animable" fill="#f5f5f5" d="M133.01 164.41l-56.31-.5v-21l56.31.5v21z"/><path style="transform-origin:105.07px 152.845px" id="prefix__elemnlbbocc7" class="prefix__animable" fill="#e0e0e0" d="M129.6 160.44H80.54v-15.19l49.06.52v14.67z"/><path style="transform-origin:303.535px 362.93px" id="prefix__el7ae6no33c0a" class="prefix__animable" fill="#fafafa" d="M282.02 353.29h43.03v19.28h-43.03z"/><path style="transform-origin:303.315px 360.81px" id="prefix__elkt5htb0cua" class="prefix__animable" fill="#e6e6e6" d="M283.71 355.99h39.21v9.64h-39.21z"/><path style="transform-origin:339.095px 362.93px" id="prefix__el5zraad2cuy4" class="prefix__animable" fill="#fafafa" d="M317.58 353.29h43.03v19.28h-43.03z"/><path style="transform-origin:338.875px 360.81px" id="prefix__els251ne1bz7" class="prefix__animable" fill="#e6e6e6" d="M319.27 355.99h39.21v9.64h-39.21z"/><path style="transform-origin:374.655px 362.93px" id="prefix__el7b95j5w9j63" class="prefix__animable" fill="#fafafa" d="M353.14 353.29h43.03v19.28h-43.03z"/><path style="transform-origin:374.425px 360.81px" id="prefix__el386a9dv7pi6" class="prefix__animable" fill="#e6e6e6" d="M354.82 355.99h39.21v9.64h-39.21z"/><path style="transform-origin:410.205px 362.93px" id="prefix__el43w714co791" class="prefix__animable" fill="#fafafa" d="M388.69 353.29h43.03v19.28h-43.03z"/><path style="transform-origin:409.985px 360.81px" id="prefix__elnq54uoj67u9" class="prefix__animable" fill="#e6e6e6" d="M390.38 355.99h39.21v9.64h-39.21z"/><path style="transform-origin:355.885px 238.31px" id="prefix__elmxx334skkrh" class="prefix__animable" fill="#fafafa" d="M264.96 94.71h181.85v287.2H264.96z"/><path style="transform-origin:355.595px 133.135px" id="prefix__eln6fu9f2gedn" class="prefix__animable" fill="#e0e0e0" d="M271.95 102.36h167.29v61.55H271.95z"/><path style="transform-origin:355.595px 202.785px" id="prefix__elh4m0tfhud8v" class="prefix__animable" fill="#e0e0e0" d="M271.95 172.01h167.29v61.55H271.95z"/><path style="transform-origin:355.595px 272.435px" id="prefix__elsm9ylooecoc" class="prefix__animable" fill="#e0e0e0" d="M271.95 241.66h167.29v61.55H271.95z"/><path style="transform-origin:355.595px 342.085px" id="prefix__eli7nfmgsney" class="prefix__animable" fill="#e0e0e0" d="M271.95 311.31h167.29v61.55H271.95z"/><path style="transform-origin:356.065px 275.82px" id="prefix__elqlysohea6v" class="prefix__animable" fill="#e6e6e6" d="M435.43 303.21H276.7l13.78-54.78h131.17l13.78 54.78z"/><path style="transform-origin:356.065px 344.83px" id="prefix__elp3rbk7bfwxa" class="prefix__animable" fill="#e6e6e6" d="M435.43 372.22H276.7l13.78-54.78h131.17l13.78 54.78z"/><path style="transform-origin:356.065px 206.005px" id="prefix__eljt74sysku0a" class="prefix__animable" fill="#e6e6e6" d="M435.43 233.39H276.7l13.78-54.77h131.17l13.78 54.77z"/><path style="transform-origin:356.065px 136.185px" id="prefix__elcg4jiosa7f" class="prefix__animable" fill="#e6e6e6" d="M435.43 163.57H276.7l13.78-54.77h131.17l13.78 54.77z"/><rect x="290.01" y="140.38" width="13.31" height="24.22" rx="3.03" style="transform-origin:296.665px 152.49px" id="prefix__elvl8hyz3613j" class="prefix__animable" fill="#f0f0f0"/><path style="transform-origin:296.655px 139.725px" id="prefix__eleg1e4nh69kj" class="prefix__animable" fill="#fafafa" d="M291.31 139.07H302v1.31h-10.69z"/><path style="transform-origin:299.015px 152.44px" id="prefix__eljz9udzrzkda" class="prefix__animable" fill="#fafafa" d="M297.71 140.38h2.61v24.12h-2.61z"/><rect x="305.78" y="140.38" width="13.31" height="24.22" rx="3.03" style="transform-origin:312.435px 152.49px" id="prefix__elkgcpudfq0o" class="prefix__animable" fill="#f0f0f0"/><path style="transform-origin:312.425px 139.725px" id="prefix__elpubq0jm8jjh" class="prefix__animable" fill="#fafafa" d="M307.08 139.07h10.69v1.31h-10.69z"/><path style="transform-origin:314.785px 152.44px" id="prefix__eljgf05jukg7j" class="prefix__animable" fill="#fafafa" d="M313.48 140.38h2.61v24.12h-2.61z"/><rect x="321.55" y="140.38" width="13.31" height="24.22" rx="3.03" style="transform-origin:328.205px 152.49px" id="prefix__elk12ece01ztt" class="prefix__animable" fill="#f0f0f0"/><path style="transform-origin:328.205px 139.725px" id="prefix__elryiczvj252s" class="prefix__animable" fill="#fafafa" d="M322.86 139.07h10.69v1.31h-10.69z"/><path style="transform-origin:330.555px 152.44px" id="prefix__el3vbritqt7xz" class="prefix__animable" fill="#fafafa" d="M329.25 140.38h2.61v24.12h-2.61z"/><rect x="337.32" y="140.38" width="13.31" height="24.22" rx="3.03" style="transform-origin:343.975px 152.49px" id="prefix__elb68j2pm2x9d" class="prefix__animable" fill="#f0f0f0"/><path style="transform-origin:343.975px 139.725px" id="prefix__elqqrvapy1l4" class="prefix__animable" fill="#fafafa" d="M338.63 139.07h10.69v1.31h-10.69z"/><path style="transform-origin:346.335px 152.44px" id="prefix__eln4fw2ihr1z" class="prefix__animable" fill="#fafafa" d="M345.03 140.38h2.61v24.12h-2.61z"/><rect x="353.09" y="140.38" width="13.31" height="24.22" rx="3.03" style="transform-origin:359.745px 152.49px" id="prefix__elq7ztl81c28" class="prefix__animable" fill="#f0f0f0"/><path style="transform-origin:359.745px 139.725px" id="prefix__el3s1j9eet5b3" class="prefix__animable" fill="#fafafa" d="M354.4 139.07h10.69v1.31H354.4z"/><path style="transform-origin:362.105px 152.44px" id="prefix__ely3mfx011ngk" class="prefix__animable" fill="#fafafa" d="M360.8 140.38h2.61v24.12h-2.61z"/><rect x="368.87" y="140.38" width="13.31" height="24.22" rx="3.03" style="transform-origin:375.525px 152.49px" id="prefix__eldc1tg1zp78r" class="prefix__animable" fill="#f0f0f0"/><path style="transform-origin:375.515px 139.725px" id="prefix__el88pjmjjaalp" class="prefix__animable" fill="#fafafa" d="M370.17 139.07h10.69v1.31h-10.69z"/><path style="transform-origin:377.875px 152.44px" id="prefix__el6bd0spzttck" class="prefix__animable" fill="#fafafa" d="M376.57 140.38h2.61v24.12h-2.61z"/><rect x="384.64" y="140.38" width="13.31" height="24.22" rx="3.03" style="transform-origin:391.295px 152.49px" id="prefix__elulfhyd9lelh" class="prefix__animable" fill="#f0f0f0"/><path style="transform-origin:391.295px 139.725px" id="prefix__el50g9qmjjby5" class="prefix__animable" fill="#fafafa" d="M385.95 139.07h10.69v1.31h-10.69z"/><path style="transform-origin:393.645px 152.44px" id="prefix__elueuu7k3hw5" class="prefix__animable" fill="#fafafa" d="M392.34 140.38h2.61v24.12h-2.61z"/><rect x="400.41" y="140.38" width="13.31" height="24.22" rx="3.03" style="transform-origin:407.065px 152.49px" id="prefix__el3i0byvct9fe" class="prefix__animable" fill="#f0f0f0"/><path style="transform-origin:407.065px 139.725px" id="prefix__elnc6relli2yo" class="prefix__animable" fill="#fafafa" d="M401.72 139.07h10.69v1.31h-10.69z"/><path style="transform-origin:409.415px 152.44px" id="prefix__el1g9wcs1i0ea" class="prefix__animable" fill="#fafafa" d="M408.11 140.38h2.61v24.12h-2.61z"/><rect x="416.18" y="140.38" width="13.31" height="24.22" rx="3.03" style="transform-origin:422.835px 152.49px" id="prefix__el059xncgce5h" class="prefix__animable" fill="#f0f0f0"/><path style="transform-origin:422.835px 139.725px" id="prefix__elfdgeojj7nk9" class="prefix__animable" fill="#fafafa" d="M417.49 139.07h10.69v1.31h-10.69z"/><path style="transform-origin:425.195px 152.44px" id="prefix__eltqefl1w5eih" class="prefix__animable" fill="#fafafa" d="M423.89 140.38h2.61v24.12h-2.61z"/><path d="M303.11 210.24v20.5a2.35 2.35 0 01-2.35 2.35h-7.87a2.35 2.35 0 01-2.35-2.35v-20.5a6.27 6.27 0 014.37-6v-1.41h3.69v1.37a6.1 6.1 0 012.67 1.58 6.24 6.24 0 011.84 4.46z" style="transform-origin:296.825px 217.96px" id="prefix__elzthfbqbr4ko" class="prefix__animable" fill="#f0f0f0"/><path style="transform-origin:296.745px 201.335px" id="prefix__eld97du1mikig" class="prefix__animable" fill="#fafafa" d="M294.36 199.82h4.77v3.03h-4.77z"/><path style="transform-origin:296.825px 216.53px" id="prefix__el1vmidvm54uzk" class="prefix__animable" fill="#e0e0e0" d="M291.48 210.24h10.69v12.58h-10.69z"/><path d="M318.86 210.24v20.5a2.35 2.35 0 01-2.35 2.35h-7.87a2.35 2.35 0 01-2.35-2.35v-20.5a6.27 6.27 0 014.37-6v-1.41h3.69v1.37a6 6 0 012.65 1.6 6.24 6.24 0 011.86 4.44z" style="transform-origin:312.575px 217.96px" id="prefix__elukhab7g7z0o" class="prefix__animable" fill="#f0f0f0"/><path style="transform-origin:312.505px 201.335px" id="prefix__elr7oe8mkdb9e" class="prefix__animable" fill="#fafafa" d="M310.12 199.82h4.77v3.03h-4.77z"/><path style="transform-origin:312.575px 216.53px" id="prefix__el97zk590c1lw" class="prefix__animable" fill="#e0e0e0" d="M307.23 210.24h10.69v12.58h-10.69z"/><path d="M334.61 210.24v20.5a2.35 2.35 0 01-2.35 2.35h-7.87a2.35 2.35 0 01-2.35-2.35v-20.5a6.27 6.27 0 014.37-6v-1.41h3.69v1.37a6 6 0 012.67 1.58 6.24 6.24 0 011.84 4.46z" style="transform-origin:328.325px 217.96px" id="prefix__eljx0j3al9qg" class="prefix__animable" fill="#f0f0f0"/><path style="transform-origin:328.255px 201.335px" id="prefix__elpd78cfz2dcj" class="prefix__animable" fill="#fafafa" d="M325.87 199.82h4.77v3.03h-4.77z"/><path style="transform-origin:328.325px 216.53px" id="prefix__elubhpunajmno" class="prefix__animable" fill="#e0e0e0" d="M322.98 210.24h10.69v12.58h-10.69z"/><path d="M350.37 210.24v20.5a2.35 2.35 0 01-2.35 2.35h-7.88a2.35 2.35 0 01-2.35-2.35v-20.5a6.27 6.27 0 014.37-6v-1.41h3.7v1.37a6.15 6.15 0 012.67 1.58 6.28 6.28 0 011.84 4.46z" style="transform-origin:344.08px 217.96px" id="prefix__el29ah4693oy4" class="prefix__animable" fill="#f0f0f0"/><path style="transform-origin:344.005px 201.335px" id="prefix__elk00s4tblee" class="prefix__animable" fill="#fafafa" d="M341.62 199.82h4.77v3.03h-4.77z"/><path style="transform-origin:344.075px 216.53px" id="prefix__elbtr2hp5f59j" class="prefix__animable" fill="#e0e0e0" d="M338.73 210.24h10.69v12.58h-10.69z"/><path d="M366.12 210.24v20.5a2.35 2.35 0 01-2.35 2.35h-7.88a2.35 2.35 0 01-2.35-2.35v-20.5a6.27 6.27 0 014.37-6v-1.41h3.7v1.37a6.15 6.15 0 012.67 1.58 6.24 6.24 0 011.84 4.46z" style="transform-origin:359.83px 217.96px" id="prefix__eltj7zjq5r13e" class="prefix__animable" fill="#f0f0f0"/><path style="transform-origin:359.755px 201.335px" id="prefix__el2rv034iyxyh" class="prefix__animable" fill="#fafafa" d="M357.37 199.82h4.77v3.03h-4.77z"/><path style="transform-origin:359.825px 216.53px" id="prefix__eljdwxf21lo9" class="prefix__animable" fill="#e0e0e0" d="M354.48 210.24h10.69v12.58h-10.69z"/><path d="M381.87 210.24v20.5a2.35 2.35 0 01-2.35 2.35h-7.88a2.35 2.35 0 01-2.35-2.35v-20.5a6.28 6.28 0 014.38-6v-1.41h3.69v1.37a6.15 6.15 0 012.64 1.6 6.24 6.24 0 011.87 4.44z" style="transform-origin:375.58px 217.96px" id="prefix__elkndat73me7" class="prefix__animable" fill="#f0f0f0"/><path style="transform-origin:375.505px 201.335px" id="prefix__el9vvagg702r" class="prefix__animable" fill="#fafafa" d="M373.12 199.82h4.77v3.03h-4.77z"/><path style="transform-origin:375.585px 216.53px" id="prefix__elb76buruhacj" class="prefix__animable" fill="#e0e0e0" d="M370.24 210.24h10.69v12.58h-10.69z"/><path d="M397.62 210.24v20.5a2.35 2.35 0 01-2.35 2.35h-7.87a2.35 2.35 0 01-2.35-2.35v-20.5a6.27 6.27 0 014.37-6v-1.41h3.69v1.37a6.1 6.1 0 012.67 1.58 6.24 6.24 0 011.84 4.46z" style="transform-origin:391.335px 217.96px" id="prefix__elw98qltri6mr" class="prefix__animable" fill="#f0f0f0"/><path style="transform-origin:391.255px 201.335px" id="prefix__elkmjuup9e129" class="prefix__animable" fill="#fafafa" d="M388.87 199.82h4.77v3.03h-4.77z"/><path style="transform-origin:391.335px 216.53px" id="prefix__elzkxqhns5dql" class="prefix__animable" fill="#e0e0e0" d="M385.99 210.24h10.69v12.58h-10.69z"/><path d="M413.37 210.24v20.5a2.35 2.35 0 01-2.35 2.35h-7.87a2.35 2.35 0 01-2.35-2.35v-20.5a6.27 6.27 0 014.37-6v-1.41h3.69v1.37a6 6 0 012.67 1.58 6.24 6.24 0 011.84 4.46z" style="transform-origin:407.085px 217.96px" id="prefix__elc8pi8nkrgns" class="prefix__animable" fill="#f0f0f0"/><path style="transform-origin:407.015px 201.335px" id="prefix__elk3rmdoka3l" class="prefix__animable" fill="#fafafa" d="M404.63 199.82h4.77v3.03h-4.77z"/><path style="transform-origin:407.085px 216.53px" id="prefix__el9r5km5ghh0m" class="prefix__animable" fill="#e0e0e0" d="M401.74 210.24h10.69v12.58h-10.69z"/><path d="M429.12 210.24v20.5a2.35 2.35 0 01-2.35 2.35h-7.87a2.35 2.35 0 01-2.35-2.35v-20.5a6.27 6.27 0 014.37-6v-1.41h3.69v1.37a6 6 0 012.67 1.58 6.24 6.24 0 011.84 4.46z" style="transform-origin:422.835px 217.96px" id="prefix__eltkb56k0gtk" class="prefix__animable" fill="#f0f0f0"/><path style="transform-origin:422.765px 201.335px" id="prefix__elggaj6b772kf" class="prefix__animable" fill="#fafafa" d="M420.38 199.82h4.77v3.03h-4.77z"/><path style="transform-origin:422.835px 216.53px" id="prefix__elu5i77a7wxd" class="prefix__animable" fill="#e0e0e0" d="M417.49 210.24h10.69v12.58h-10.69z"/><path d="M316.24 303.21a84.67 84.67 0 00-27.23-.9l-7 .9 1.15-7.29a85.28 85.28 0 000-26.3l-1.16-7.29 3.14.51a85.08 85.08 0 0025.14.31l5.94-.82-1.22 10.16a85.19 85.19 0 000 20.56z" style="transform-origin:299.12px 282.77px" id="prefix__elkzfovvon09r" class="prefix__animable" fill="#fafafa"/><ellipse cx="299.13" cy="284.26" rx="10.69" ry="8.44" style="transform-origin:299.13px 284.26px" id="prefix__el27ycxj7l8ww" class="prefix__animable" fill="#e6e6e6"/><path d="M335.49 303.21a84.72 84.72 0 00-27.24-.9l-7 .9 1.14-7.29a84.66 84.66 0 000-26.3l-1.14-7.29 3.14.51a85 85 0 0025.13.31l5.95-.82-1.24 10.16a84.19 84.19 0 000 20.56z" style="transform-origin:318.37px 282.77px" id="prefix__elx9b81c4aaz" class="prefix__animable" fill="#fafafa"/><ellipse cx="318.38" cy="284.26" rx="10.69" ry="8.44" style="transform-origin:318.38px 284.26px" id="prefix__elppjkcynakpp" class="prefix__animable" fill="#e6e6e6"/><path d="M354.74 303.21a84.73 84.73 0 00-27.24-.9l-7 .9 1.14-7.29a84.66 84.66 0 000-26.3l-1.14-7.29 3.14.51a85 85 0 0025.13.31l5.95-.82-1.24 10.16a84.19 84.19 0 000 20.56z" style="transform-origin:337.62px 282.77px" id="prefix__el8elfl6nub2u" class="prefix__animable" fill="#fafafa"/><ellipse cx="337.63" cy="284.26" rx="10.69" ry="8.44" style="transform-origin:337.63px 284.26px" id="prefix__elzbf2k75nrlb" class="prefix__animable" fill="#e6e6e6"/><path d="M374 303.21a84.66 84.66 0 00-27.23-.9l-7 .9 1.14-7.29a84.66 84.66 0 000-26.3l-1.14-7.29 3.13.51a85.08 85.08 0 0025.14.31l5.94-.82-1.24 10.16a85.19 85.19 0 000 20.56z" style="transform-origin:356.885px 282.77px" id="prefix__elmabunt24ybi" class="prefix__animable" fill="#fafafa"/><ellipse cx="356.87" cy="284.26" rx="10.69" ry="8.44" style="transform-origin:356.87px 284.26px" id="prefix__elldvejilmky" class="prefix__animable" fill="#e6e6e6"/><path d="M393.23 303.21a84.67 84.67 0 00-27.23-.9l-7 .9 1.15-7.29a85.28 85.28 0 000-26.3l-1.15-7.29 3.14.51a85.08 85.08 0 0025.14.31l5.94-.82-1.22 10.16a85.19 85.19 0 000 20.56z" style="transform-origin:376.115px 282.77px" id="prefix__el7i0jj17hfud" class="prefix__animable" fill="#fafafa"/><ellipse cx="376.12" cy="284.26" rx="10.69" ry="8.44" style="transform-origin:376.12px 284.26px" id="prefix__el9qsnjsentam" class="prefix__animable" fill="#e6e6e6"/><path d="M412.48 303.21a84.72 84.72 0 00-27.24-.9l-7 .9 1.14-7.29a84.66 84.66 0 000-26.3l-1.14-7.29 3.14.51a85 85 0 0025.13.31l6-.82-1.24 10.16a84.19 84.19 0 000 20.56z" style="transform-origin:395.375px 282.77px" id="prefix__elrtighc5emx" class="prefix__animable" fill="#fafafa"/><ellipse cx="395.37" cy="284.26" rx="10.69" ry="8.44" style="transform-origin:395.37px 284.26px" id="prefix__el19oco9l1ijh" class="prefix__animable" fill="#e6e6e6"/><path d="M431.73 303.21a84.72 84.72 0 00-27.24-.9l-7 .9 1.14-7.29a84.66 84.66 0 000-26.3l-1.14-7.29 3.14.51a85 85 0 0025.13.31l6-.82-1.24 10.16a84.19 84.19 0 000 20.56z" style="transform-origin:414.625px 282.77px" id="prefix__el8qbs915h5jn" class="prefix__animable" fill="#fafafa"/><ellipse cx="414.62" cy="284.26" rx="10.69" ry="8.44" style="transform-origin:414.62px 284.26px" id="prefix__elgmo456buljk" class="prefix__animable" fill="#e6e6e6"/><path style="transform-origin:303.535px 362.93px" id="prefix__ele8uuhqi34iu" class="prefix__animable" fill="#fafafa" d="M282.02 353.29h43.03v19.28h-43.03z"/><path style="transform-origin:303.315px 360.81px" id="prefix__elizgjjq1b7n" class="prefix__animable" fill="#e6e6e6" d="M283.71 355.99h39.21v9.64h-39.21z"/><path style="transform-origin:339.095px 362.93px" id="prefix__el74yprwe24ar" class="prefix__animable" fill="#fafafa" d="M317.58 353.29h43.03v19.28h-43.03z"/><path style="transform-origin:338.875px 360.81px" id="prefix__eli3ror1jg6ho" class="prefix__animable" fill="#e6e6e6" d="M319.27 355.99h39.21v9.64h-39.21z"/><path style="transform-origin:374.655px 362.93px" id="prefix__el0lo70raz0abn" class="prefix__animable" fill="#fafafa" d="M353.14 353.29h43.03v19.28h-43.03z"/><path style="transform-origin:374.425px 360.81px" id="prefix__el2w5kyj69w5x" class="prefix__animable" fill="#e6e6e6" d="M354.82 355.99h39.21v9.64h-39.21z"/><path style="transform-origin:410.205px 362.93px" id="prefix__elvv22oc1ev3q" class="prefix__animable" fill="#fafafa" d="M388.69 353.29h43.03v19.28h-43.03z"/><path style="transform-origin:409.985px 360.81px" id="prefix__eljit87u1thts" class="prefix__animable" fill="#e6e6e6" d="M390.38 355.99h39.21v9.64h-39.21z"/><path style="transform-origin:308.955px 344.08px" id="prefix__eliyqjd22iv8o" class="prefix__animable" fill="#fafafa" d="M287.44 334.44h43.03v19.28h-43.03z"/><path style="transform-origin:308.725px 341.96px" id="prefix__ele6roor49uon" class="prefix__animable" fill="#e6e6e6" d="M289.12 337.14h39.21v9.64h-39.21z"/><path style="transform-origin:340.425px 344.08px" id="prefix__el4h9cikye27y" class="prefix__animable" fill="#fafafa" d="M318.91 334.44h43.03v19.28h-43.03z"/><path style="transform-origin:340.205px 341.96px" id="prefix__elkmmd3ci6voq" class="prefix__animable" fill="#e6e6e6" d="M320.6 337.14h39.21v9.64H320.6z"/><path style="transform-origin:371.895px 344.08px" id="prefix__el1n5z6u7g9k8" class="prefix__animable" fill="#fafafa" d="M350.38 334.44h43.03v19.28h-43.03z"/><path style="transform-origin:371.675px 341.96px" id="prefix__eltokblx6rcf8" class="prefix__animable" fill="#e6e6e6" d="M352.07 337.14h39.21v9.64h-39.21z"/><path style="transform-origin:403.365px 344.08px" id="prefix__ely4ffnu271kh" class="prefix__animable" fill="#fafafa" d="M381.85 334.44h43.03v19.28h-43.03z"/><path style="transform-origin:403.145px 341.96px" id="prefix__elc3jdj5muq1" class="prefix__animable" fill="#e6e6e6" d="M383.54 337.14h39.21v9.64h-39.21z"/></g><g id="prefix__freepik--Shadow--inject-196" class="prefix__animable" style="transform-origin:250px 415.69px"><ellipse id="prefix__freepik--path--inject-196" cx="250" cy="415.69" rx="193.89" ry="11.32" style="transform-origin:250px 415.69px" class="prefix__animable" fill="#f5f5f5"/></g><g id="prefix__freepik--Cart--inject-196" class="prefix__animable" style="transform-origin:208.85px 326.27px"><path d="M292.63 260a4.49 4.49 0 00-4.3 3.23h-1.53a16.57 16.57 0 00-14.8 9.33l-5.14 10.7a.9.9 0 00.42 1.21.92.92 0 00.39.09.91.91 0 00.82-.52l5.15-10.7A14.73 14.73 0 01286.8 265h1.38a4.49 4.49 0 104.45-5z" style="transform-origin:281.949px 272.28px" id="prefix__ela4o088h9yor" class="prefix__animable" fill="#00aeff"/><path d="M292.63 260a4.49 4.49 0 00-4.3 3.23h-1.53a16.57 16.57 0 00-14.8 9.33l-5.14 10.7a.9.9 0 00.42 1.21.92.92 0 00.39.09.91.91 0 00.82-.52l5.15-10.7A14.73 14.73 0 01286.8 265h1.38a4.49 4.49 0 104.45-5z" style="transform-origin:281.949px 272.28px" class="prefix__animable" fill="#fff" opacity=".3" id="prefix__eli9v4y0gr29"/><path d="M156.92 380.16a.79.79 0 01-.3-.05.91.91 0 01-.56-1.15l5.29-15.25a.9.9 0 011.15-.55.91.91 0 01.56 1.15l-5.29 15.24a.9.9 0 01-.85.61z" style="transform-origin:159.56px 371.634px" id="prefix__el6gg2jv00y8l" class="prefix__animable" fill="#00aeff"/><path d="M232.91 380.16h-73.35a.91.91 0 010-1.81h72.08l-4.87-14a.91.91 0 01.56-1.15.89.89 0 011.15.55l5.29 15.25a.92.92 0 01-.12.82.9.9 0 01-.74.34z" style="transform-origin:196.281px 371.653px" id="prefix__eliyrruyfmcyp" class="prefix__animable" fill="#00aeff"/><path d="M228.8 364.92H137a.91.91 0 110-1.81h91.8a14.67 14.67 0 0014.66-14.66v-10.59a.91.91 0 111.81 0v10.59a16.49 16.49 0 01-16.47 16.47z" style="transform-origin:190.635px 350.89px" id="prefix__elxrr4deln11" class="prefix__animable" fill="#00aeff"/><path d="M244.37 337a.91.91 0 00-.91.91v10.59a14.67 14.67 0 01-14.66 14.66H137a.91.91 0 100 1.81h24l-4.87 14a.91.91 0 00.56 1.15.79.79 0 00.3.05.9.9 0 00.85-.61l5.08-14.63H227l4.65 13.43h-72.09a.91.91 0 000 1.81h73.35a.9.9 0 00.74-.38.92.92 0 00.12-.82l-4.87-14a16.47 16.47 0 0016.37-16.46v-10.65a.9.9 0 00-.9-.86z" style="transform-origin:190.632px 358.585px" id="prefix__el9twhck6830p" class="prefix__animable" fill="#00aeff"/><path d="M244.37 337a.91.91 0 00-.91.91v10.59a14.67 14.67 0 01-14.66 14.66H137a.91.91 0 100 1.81h24l-4.87 14a.91.91 0 00.56 1.15.79.79 0 00.3.05.9.9 0 00.85-.61l5.08-14.63H227l4.65 13.43h-72.09a.91.91 0 000 1.81h73.35a.9.9 0 00.74-.38.92.92 0 00.12-.82l-4.87-14a16.47 16.47 0 0016.37-16.46v-10.65a.9.9 0 00-.9-.86z" style="transform-origin:190.632px 358.585px" class="prefix__animable" fill="#fff" opacity=".6" id="prefix__el914dfj5svuv"/><path d="M244.37 338.76h-107.2a.9.9 0 01-.88-.69l-15.67-64a1 1 0 01.17-.78.93.93 0 01.71-.34h150.23a.93.93 0 01.76.4.94.94 0 01.07.86l-27.36 64a.89.89 0 01-.83.55zM137.88 337h105.89l26.59-62.15h-147.7z" style="transform-origin:196.617px 305.855px" id="prefix__elc9gv66nddbu" class="prefix__animable" fill="#00aeff"/><path d="M258.34 306.11h-129.8a.91.91 0 010-1.81h129.8a.91.91 0 010 1.81z" style="transform-origin:193.44px 305.205px" id="prefix__elwu7oo9cf98m" class="prefix__animable" fill="#00aeff"/><path d="M137.17 338.76a.9.9 0 01-.88-.69l-15.67-64a.91.91 0 111.76-.43l15.67 64a.91.91 0 01-.67 1.1z" style="transform-origin:129.323px 305.811px" id="prefix__elgd780cm4ftf" class="prefix__animable" fill="#00aeff"/><path d="M164 338.76a.9.9 0 01-.9-.84l-4.65-64.2a.9.9 0 01.84-1 .88.88 0 011 .83l4.65 64.2a.91.91 0 01-.84 1z" style="transform-origin:161.694px 305.736px" id="prefix__elcvns3mprh3" class="prefix__animable" fill="#00aeff"/><path d="M190.77 338.76h-.09a.9.9 0 01-.81-1l6.37-64.44a.9.9 0 111.8.18l-6.37 64.5a.91.91 0 01-.9.76z" style="transform-origin:193.954px 305.631px" id="prefix__el9qqzzg1pcg9" class="prefix__animable" fill="#00aeff"/><path d="M217.57 338.76h-.24a.91.91 0 01-.64-1.11L234.08 273a.91.91 0 111.75.47l-17.39 64.67a.89.89 0 01-.87.62z" style="transform-origin:226.273px 305.502px" id="prefix__elvwlzcqj671" class="prefix__animable" fill="#00aeff"/><path d="M244.37 338.76a1 1 0 01-.37-.07.92.92 0 01-.46-1.2l28.4-64.9a.91.91 0 111.66.73l-28.4 64.9a.91.91 0 01-.83.54z" style="transform-origin:258.588px 305.367px" id="prefix__elks5t1s7porf" class="prefix__animable" fill="#00aeff"/><g style="transform-origin:197.14px 305.367px" class="prefix__animable" opacity=".7" id="prefix__elbx14k1c2hiu"><path d="M244.37 338.76h-107.2a.9.9 0 01-.88-.69l-15.67-64a1 1 0 01.17-.78.93.93 0 01.71-.34h150.23a.93.93 0 01.76.4.94.94 0 01.07.86l-27.36 64a.89.89 0 01-.83.55zM137.88 337h105.89l26.59-62.15h-147.7z" style="transform-origin:196.617px 305.855px" id="prefix__el5dc2kvbxkv3" class="prefix__animable" fill="#fafafa"/><path d="M258.34 306.11h-129.8a.91.91 0 010-1.81h129.8a.91.91 0 010 1.81z" style="transform-origin:193.44px 305.205px" id="prefix__elidb1u74b90j" class="prefix__animable" fill="#fafafa"/><path d="M137.17 338.76a.9.9 0 01-.88-.69l-15.67-64a.91.91 0 111.76-.43l15.67 64a.91.91 0 01-.67 1.1z" style="transform-origin:129.323px 305.811px" id="prefix__el0zhvewiio0x" class="prefix__animable" fill="#fafafa"/><path d="M164 338.76a.9.9 0 01-.9-.84l-4.65-64.2a.9.9 0 01.84-1 .88.88 0 011 .83l4.65 64.2a.91.91 0 01-.84 1z" style="transform-origin:161.694px 305.736px" id="prefix__elxgpyuukbh8" class="prefix__animable" fill="#fafafa"/><path d="M190.77 338.76h-.09a.9.9 0 01-.81-1l6.37-64.44a.9.9 0 111.8.18l-6.37 64.5a.91.91 0 01-.9.76z" style="transform-origin:193.954px 305.631px" id="prefix__elssiw5bc3yvn" class="prefix__animable" fill="#fafafa"/><path d="M217.57 338.76h-.24a.91.91 0 01-.64-1.11L234.08 273a.91.91 0 111.75.47l-17.39 64.67a.89.89 0 01-.87.62z" style="transform-origin:226.273px 305.502px" id="prefix__elka9nzqb6cem" class="prefix__animable" fill="#fafafa"/><path d="M244.37 338.76a1 1 0 01-.37-.07.92.92 0 01-.46-1.2l28.4-64.9a.91.91 0 111.66.73l-28.4 64.9a.91.91 0 01-.83.54z" style="transform-origin:258.588px 305.367px" id="prefix__elyjwhs2wt2q9" class="prefix__animable" fill="#fafafa"/></g><circle cx="156.92" cy="379.26" r="9.39" style="transform-origin:156.92px 379.26px" class="prefix__animable" fill="#00aeff" transform="rotate(-45)" id="prefix__elwqfeg9f70ro"/><g style="transform-origin:156.92px 379.26px" class="prefix__animable" opacity=".3" id="prefix__el0twb4d201vd9"><circle cx="156.92" cy="379.26" r="9.39" style="transform-origin:156.92px 379.26px" class="prefix__animable" fill="#fff" transform="rotate(-45)" id="prefix__elau1w9xz9l7h"/></g><path d="M162.73 379.26a5.81 5.81 0 11-5.81-5.81 5.81 5.81 0 015.81 5.81z" style="transform-origin:156.92px 379.26px" class="prefix__animable" opacity=".2" id="prefix__elfbfra3aboyb"/><circle cx="156.92" cy="379.53" r="2.39" style="transform-origin:156.92px 379.53px" id="prefix__elpvriwnhfi1f" class="prefix__animable" fill="#263238"/><circle cx="230.27" cy="379.26" r="9.39" style="transform-origin:230.27px 379.26px" class="prefix__animable" fill="#00aeff" transform="rotate(-76.72)" id="prefix__el5or3w27phkg"/><g style="transform-origin:230.14px 379.26px" class="prefix__animable" opacity=".7" id="prefix__elweko3ufoya"><circle cx="230.14" cy="379.26" r="9.39" style="transform-origin:230.14px 379.26px" class="prefix__animable" fill="#fff" opacity=".3" transform="rotate(-45)" id="prefix__eljz3w6vem0lp"/></g><path d="M236.08 379.26a5.81 5.81 0 11-5.81-5.81 5.81 5.81 0 015.81 5.81z" style="transform-origin:230.27px 379.26px" class="prefix__animable" opacity=".2" id="prefix__el3uwf4hp8ft4"/><path d="M232.66 379.53a2.39 2.39 0 11-2.39-2.39 2.4 2.4 0 012.39 2.39z" style="transform-origin:230.27px 379.53px" id="prefix__elnnkprpminc" class="prefix__animable" fill="#263238"/></g><g id="prefix__freepik--Lines--inject-196" class="prefix__animable" style="transform-origin:259.275px 262.155px"><path d="M300.91 375.84h-7.42v-.75c12.4 0 25.1 0 37.72-.2v.75c-10.11.13-20.28.2-30.3.2z" style="transform-origin:312.35px 375.365px" id="prefix__el1dfkyaeig0i" class="prefix__animable" fill="#00aeff"/><path d="M287.38 375.8c-5.33 0-10.78-.09-16.19-.17v-.75c5.41.08 10.86.13 16.19.17z" style="transform-origin:279.285px 375.34px" id="prefix__el6balcp271um" class="prefix__animable" fill="#00aeff"/><path style="transform-origin:262.72px 375.255px" id="prefix__el2f2cpfr0n2m" class="prefix__animable" fill="#00aeff" d="M259.69 374.88h6.06v.75h-6.06z"/><path style="transform-origin:206.36px 205.165px" id="prefix__eltkkhp4xf8ne" class="prefix__animable" fill="#00aeff" d="M187.34 204.79h38.04v.75h-38.04z"/><path style="transform-origin:231.04px 205.165px" id="prefix__elr7o87us6mv8" class="prefix__animable" fill="#00aeff" d="M229.49 204.79h3.1v.75h-3.1z"/><path style="transform-origin:286.915px 148.845px" id="prefix__eljx0dsqz39ik" class="prefix__animable" fill="#00aeff" d="M278.27 148.47h17.29v.75h-17.29z"/><path style="transform-origin:268.99px 148.845px" id="prefix__elsze89fv5x5e" class="prefix__animable" fill="#00aeff" d="M264.12 148.47h9.74v.75h-9.74z"/></g><g id="prefix__freepik--character-1--inject-196" class="prefix__animable" style="transform-origin:153.16px 267.194px;animation:1s 1 forwards cubic-bezier(.36,-.01,.5,1.38) slideRight;animation-delay:0s"><path style="transform-origin:112.57px 265.085px" id="prefix__el4hnecz6vb4n" class="prefix__animable" fill="#00aeff" d="M137.31 296.98l-40.29 10.77-9.19-79.87 26.59-5.46 22.89 74.56z"/><path style="transform-origin:112.57px 265.085px" class="prefix__animable" opacity=".2" d="M137.31 296.98l-40.29 10.77-9.19-79.87 26.59-5.46 22.89 74.56z" id="prefix__el5r3bwoaori5"/><path style="transform-origin:98.795px 267.075px" class="prefix__animable" opacity=".1" d="M97.02 307.75l12.74-3.4-16.42-77.95-5.51 1.48 9.19 79.87z" id="prefix__elgetd9jkrm0h"/><path d="M107.18 228.11a.72.72 0 01-.38.95.72.72 0 11-.57-1.33.72.72 0 01.95.38z" style="transform-origin:106.515px 228.395px" id="prefix__el9wyjlk7l34s" class="prefix__animable" fill="#263238"/><path style="transform-origin:69.135px 260.805px" id="prefix__elc5rnz67pgzt" class="prefix__animable" fill="#00aeff" d="M81.52 302.99l-40.51-9.9 30.31-74.47 25.94 7.98-15.74 76.39z"/><path style="transform-origin:69.135px 260.805px" class="prefix__animable" fill="#fff" opacity=".3" d="M81.52 302.99l-40.51-9.9 30.31-74.47 25.94 7.98-15.74 76.39z" id="prefix__elhf036vj8joj"/><path style="transform-origin:58.935px 257.42px" class="prefix__animable" opacity=".1" d="M41.01 293.09l12.81 3.13 23.04-76.25-5.54-1.35-30.31 74.47z" id="prefix__elrvspgoonzbg"/><path d="M88.18 228.11a.72.72 0 01-.79.65.71.71 0 01-.65-.78.72.72 0 011.44.13z" style="transform-origin:87.4596px 228.043px" id="prefix__elwe2jy84wya" class="prefix__animable" fill="#263238"/><g id="prefix__freepik--Character--inject-217--inject-196" class="prefix__animable" style="transform-origin:174.128px 269.48px"><path d="M140.15 176.42c-1.28 5.67-2.7 11.2-4.27 16.77s-3.19 11.09-5.11 16.69l-.79 2.19a11 11 0 01-2.23 3.7 14.28 14.28 0 01-5.73 3.68 30.65 30.65 0 01-10 1.61 70.15 70.15 0 01-18-2.29l.87-6.26 4.14-.08c1.39-.05 2.78-.17 4.15-.21 2.68-.15 5.36-.44 8-.85a24.63 24.63 0 006.72-1.93 3.19 3.19 0 001.34-1c0-.07-.09 0-.09 0l.51-1.89c1.38-5.39 2.7-11 4-16.48s2.7-11.09 4.14-16.59z" style="transform-origin:117.085px 197.27px" id="prefix__elmcfaedvilw" class="prefix__animable" fill="#ffb573"/><path d="M86.75 219.18a5.8 5.8 0 01-2.16-.51c-2.47-1.61-1.83-5.14-.22-7.61.07-.11 1.92-2.55 2-2.65 1.78-2.34 3.34-.46 5.68 1.32l4.69 3.57-1.49 5.54a32 32 0 01-6.7.46c-.42-.02-1.1-.05-1.8-.12z" style="transform-origin:89.843px 213.319px" id="prefix__eli87e6sl3mgb" class="prefix__animable" fill="#ffb573"/><path d="M123.45 177.3c-3.28 7.84-.83 17-.83 17l11.37.39s9.9-14.9 6.57-20.67c-3.71-6.42-13.64-5.02-17.11 3.28z" style="transform-origin:131.493px 182.345px" id="prefix__el1czs8eyte6q" class="prefix__animable" fill="#263238"/><path d="M134 194.68l-7.23-.25a64.61 64.61 0 014.15-14.88c3-6.86 5.65-9.2 9.24-8 2.56 8.29-6.16 23.13-6.16 23.13z" style="isolation:isolate;transform-origin:133.7px 182.965px" class="prefix__animable" opacity=".2" id="prefix__el7i199kbp6lm"/><path d="M159.81 164c1.15-.09 12.94.61 12 11.81-4.29 44 2.67 39.14 11.32 57.93l-43.23 10.14s-2.42-30.63-5.33-35.62c-4.89-8.4-5.7-15-4-24.63 1.88-10.62 2.82-13.57 2.82-13.57 4-1.69 17.33-7.74 26.42-6.06z" style="transform-origin:156.445px 203.794px" id="prefix__el35q5gxnk2i8" class="prefix__animable" fill="#263238"/><path d="M163.78 196.72c-.35-5.41 4.85-27.06 2.67-29.2-1.48-.47-8.44-2-11.18 2.48-4.51 19.75 8.51 26.72 8.51 26.72z" style="isolation:isolate;transform-origin:160.653px 181.803px" class="prefix__animable" opacity=".2" id="prefix__elaiqsi5401b"/><path d="M108.54 288.62c11 1.82 22.28-3.48 33.25-1.5 6.17 1.12 12 4.51 18.26 4 5.2-.41 9.74-3.46 14.48-5.64 15.13-6.95 33.46-7.82 47.73-16.4 3.6-2.16 6.94-5.06 8.63-8.9s1.41-8.76-1.5-11.79a17.42 17.42 0 00-4.66-3.11 111.53 111.53 0 00-36.27-11.53c-16.92-2.46-34.24 2.7-49.1 11.15-11.34 6.44-21.48 14.73-31.22 23.35-2.76 2.44-10.2 6.79-10.76 10.67-.82 5.65 6.87 8.99 11.16 9.7z" style="transform-origin:164.625px 262.153px" id="prefix__elmc6unr2g2a" class="prefix__animable" fill="#00aeff"/><path d="M108.54 288.62c11 1.82 22.28-3.48 33.25-1.5 6.17 1.12 12 4.51 18.26 4 5.2-.41 9.74-3.46 14.48-5.64 15.13-6.95 33.46-7.82 47.73-16.4 3.6-2.16 6.94-5.06 8.63-8.9s1.41-8.76-1.5-11.79a17.42 17.42 0 00-4.66-3.11 111.53 111.53 0 00-36.27-11.53c-16.92-2.46-34.24 2.7-49.1 11.15-11.34 6.44-21.48 14.73-31.22 23.35-2.76 2.44-10.2 6.79-10.76 10.67-.82 5.65 6.87 8.99 11.16 9.7z" style="transform-origin:164.625px 262.153px" class="prefix__animable" opacity=".2" id="prefix__el7rs250a0rau"/><path d="M175.6 238s24.8 61 32.42 78.17a25.38 25.38 0 001.55 2.91c14.81 23.69 49.95 72.8 49.95 72.8l-6.1 5.43s-44.73-42.72-60.79-71.94c-14.49-22.27-41.87-79.44-41.87-79.44z" style="transform-origin:205.14px 317.655px" id="prefix__elr4n029yz67" class="prefix__animable" fill="#ffb573"/><path d="M249.45 396.09c-.28 2.87 1.42 8.27-4.65 11.47-2.08 1.1-1.32 3.91 2.27 3.13s9.37-8.11 11.32-9.9c3.16-2.91 3.94-3.93 6.49-6.21a1.8 1.8 0 00.19-.2 1.3 1.3 0 00-.29-1.8l-6.48-4.53a.79.79 0 00-1 .06l-7.19 6.63a2 2 0 00-.66 1.35z" style="transform-origin:254.483px 399.362px" id="prefix__elnrynnq27cdr" class="prefix__animable" fill="#263238"/><path d="M247.51 398.66c1.16-.06 2.4-1.66 3-2.61a.23.23 0 000-.18.25.25 0 00-.28-.19c-.61.11-3.64.73-4 1.73a.7.7 0 00.1.71 1.07 1.07 0 00.14.16 1.28 1.28 0 001.04.38zm-.07-.49a.86.86 0 01-.69-.34.46.46 0 010-.24c.12-.47 1.72-1 3-1.3-.86 1.16-1.69 1.9-2.31 1.88z" style="transform-origin:248.352px 397.172px" id="prefix__eln05ri493t" class="prefix__animable" fill="#00aeff"/><path d="M250.39 396.15a.21.21 0 00.12-.07.25.25 0 000-.34c-.11-.07-2-1.79-3.29-1.71a1.16 1.16 0 00-.85.41.72.72 0 00-.13.89c0 .06.09.11.13.16.75.72 3.06.91 4.02.66zm-3.74-1.08s-.08-.13.08-.31a.67.67 0 01.51-.24 4.88 4.88 0 012.5 1.23c-1.1.08-2.81-.22-3.09-.68z" style="transform-origin:248.359px 395.141px" id="prefix__eljv3usqqt9p8" class="prefix__animable" fill="#00aeff"/><path d="M168.63 281.92l7.84 15.08s5.39.95 10.87-4a35.39 35.39 0 019.91-6.68l-9.91-22.1z" style="transform-origin:182.94px 280.647px" class="prefix__animable" opacity=".1" id="prefix__elyfo9u59s3y"/><path d="M162.32 264.15s-22.94 19.73-38.86 40.85a11.51 11.51 0 00-1.5 11.16c8.7 21.83 20 48.66 18.88 48.14l-4.49 6.63s-39-53.31-31.94-64c9-24.67 34.11-57.24 34.11-57.24z" style="transform-origin:132.938px 310.31px" id="prefix__elesn1sdshsxf" class="prefix__animable" fill="#ffb573"/><path d="M126.33 266.5l-9.34 15s4.85 11.3 12.54 11.3c3.92 0 8.12-4.65 8.12-4.65l13.11-11.78z" style="transform-origin:133.875px 279.65px" class="prefix__animable" opacity=".1" id="prefix__elbpy4c1kbfil"/><path d="M134 370.22c.1 2.88-2.47 9-5.67 15.13-.71 1.35 2.36 3.31 4.71.52s8.14-10.09 9.85-12.09c2.77-3.3 4-4.45 6.24-7a1.51 1.51 0 00.18-.26 1.29 1.29 0 00-.54-1.74l-7-3.68a.76.76 0 00-.94.19l-6.3 7.48a2.16 2.16 0 00-.53 1.45z" style="transform-origin:138.842px 374.15px" id="prefix__elxhjyyjhbdv" class="prefix__animable" fill="#263238"/><path d="M132.35 373c1.14-.19 2.17-2 2.68-3a.26.26 0 000-.27.26.26 0 00-.26-.07c-.59.22-3.52 1.18-3.76 2.23a.68.68 0 00.23.68.7.7 0 00.16.13 1.16 1.16 0 00.95.3zm0-.48a.84.84 0 01-.73-.26.36.36 0 01-.09-.22c.12-.49 1.59-1.2 2.85-1.67-.77 1.23-1.49 2.02-2.08 2.12z" style="transform-origin:133.03px 371.33px" id="prefix__elj974iblrdbj" class="prefix__animable" fill="#00aeff"/><path d="M134.92 370.09a.24.24 0 00.16-.2.25.25 0 00-.1-.23c-.09-.06-2.16-1.53-3.46-1.3a1.18 1.18 0 00-.79.53.7.7 0 000 .9l.15.14c.81.61 3.12.51 4.04.16zm-3.77-.61c-.07 0-.13-.12 0-.32a.72.72 0 01.47-.31 4.84 4.84 0 012.64.92c-1.08.23-2.82.12-3.11-.29z" style="transform-origin:132.824px 369.353px" id="prefix__el3q7e9oo3pu" class="prefix__animable" fill="#00aeff"/><path d="M145.7 156.54c-.2 3.3-2.68 6-5.14 8.18-1.92 1.71-4.06 3.39-6.6 3.76a7.49 7.49 0 01-8.19-7.12 4.71 4.71 0 01-6.68 2.11c-2.2-1.47-2.68-4.47-2.67-7.11a37.82 37.82 0 018.22-23.25c1.77 1.62 4.56.75 5.8.18a6.07 6.07 0 001.24-.74 6.07 6.07 0 013.86-.17c2.25 2.05 3.47 5 4.6 7.87q2.09 5.24 4.16 10.48a14 14 0 011.4 5.81z" style="transform-origin:131.06px 150.329px" id="prefix__elizt55s59xgr" class="prefix__animable" fill="#263238"/><path d="M146.78 150.37c.74 5.27 2.28 12.85 6.88 15 0 0 1.56 5.12-10.56 15.41-7.55-5.5-4.88-10.07-4.88-10.07 5.08-3.23 4.16-5.43 1.87-8.95z" style="transform-origin:145.744px 165.575px" id="prefix__el0g97a9omk8z" class="prefix__animable" fill="#ffb573"/><path d="M144.06 155l-3.91 6.75a16.84 16.84 0 011.42 2.56c2-1 4.71-4 4.37-6.43a7 7 0 00-1.88-2.88z" style="isolation:isolate;transform-origin:143.06px 159.655px" class="prefix__animable" opacity=".2" id="prefix__eltvrs5cwmgef"/><path d="M150.32 139.64c.58 8.88 1 12.62-2.87 17.7-5.84 7.65-16.88 6.41-20.1-2.11-2.88-7.68-3.35-21 4.85-25.51a12.14 12.14 0 0118.12 9.92z" style="transform-origin:138.072px 145.275px" id="prefix__ela74g5r3xy54" class="prefix__animable" fill="#ffb573"/><path d="M136.57 143.72c.08.72-.23 1.35-.69 1.42s-.93-.48-1-1.2.22-1.35.68-1.41.88.52 1.01 1.19z" style="transform-origin:135.726px 143.836px" id="prefix__eljoj2anbsrol" class="prefix__animable" fill="#263238"/><path d="M128.46 144.77c.09.73-.22 1.34-.68 1.41s-.93-.48-1-1.2.22-1.35.69-1.4.9.47.99 1.19z" style="transform-origin:127.623px 144.881px" id="prefix__el8j6ktfmk5lx" class="prefix__animable" fill="#263238"/><path d="M127.66 143.59l-1.79-.28s1.05 1.24 1.79.28z" style="transform-origin:126.765px 143.632px" id="prefix__elrl7pwe9q5if" class="prefix__animable" fill="#263238"/><path d="M131.13 145.75a19.77 19.77 0 01-2 4.91 3.22 3.22 0 002.63.15z" style="transform-origin:130.445px 148.386px" id="prefix__el65jdldpi15o" class="prefix__animable" fill="#ed893e"/><path d="M136 153.12a6.18 6.18 0 01-1 .21.21.21 0 01-.24-.17.21.21 0 01.19-.23 5.78 5.78 0 004.35-2.81.21.21 0 01.38.18 5.89 5.89 0 01-3.68 2.82z" style="transform-origin:137.23px 151.666px" id="prefix__elgheqbnw8wlc" class="prefix__animable" fill="#263238"/><path d="M139.62 141.68a.42.42 0 01-.48-.17 5 5 0 00-3.64-1.69.43.43 0 110-.85 5.78 5.78 0 014.34 2.08.42.42 0 01-.11.58.31.31 0 01-.11.05z" style="transform-origin:137.458px 140.333px" id="prefix__elru8ewxd9uwp" class="prefix__animable" fill="#263238"/><path d="M125.56 141.33a.41.41 0 01-.42-.1.43.43 0 010-.6 4.18 4.18 0 013.67-1.37.41.41 0 01.35.46.42.42 0 01-.49.34 3.39 3.39 0 00-2.86 1.11.42.42 0 01-.25.16z" style="transform-origin:127.091px 140.288px" id="prefix__el5vtb4u4q9jh" class="prefix__animable" fill="#263238"/><path d="M135.78 142.61l-1.79-.28s1.01 1.19 1.79.28z" style="transform-origin:134.885px 142.641px" id="prefix__elxqtr5dmkepb" class="prefix__animable" fill="#263238"/></g><path d="M137.76 226.21c-5 5-7.27 8.62-12.56 13.75a94.13 94.13 0 00-13 15.34c-5.28 7.89-18.26 18.51-14 27.42 1.78-10.33 12.86-11 17.77-10.75 3.24.16 5.76 2.87 7.44 5.65s3 5.91 5.48 8c3.94 3.24 9.67 2.91 14.66 1.87s10.14-2.64 15.07-1.37c4.14 1.06 7.65 4.05 11.87 4.73 7.42 1.18 13.72-4.89 20.19-8.72 7.2-4.25 15.59-5.92 23.36-9s15.48-8.36 17.84-16.37c1.28-4.33.36-9.83-3.6-12-3.4-1.85-26.94-13.05-30.84-15.15-6-3.24-22.85-10.92-22.85-10.92-20.86 12.59-36.83 7.52-36.83 7.52z" style="transform-origin:164.888px 254.845px" id="prefix__el017jblzjweva" class="prefix__animable" fill="#00aeff"/><path d="M212.8 135.4a27.3 27.3 0 01-22.52 22.9c-2.87.41-6.35.06-7.82-2.44-.66-1.14-.79-2.57-1.62-3.6-1.44-1.82-4.36-1.59-6.34-.38s-3.4 3.13-5.24 4.55-4.44 2.24-6.37 1a78.67 78.67 0 01-8 5.66c-1.7 1-3.74 1.88-5.65 1.29-2.65-.81-3.83-4.12-3.23-6.83.42-1.86.14-4 4.83-7.45 1.15-.85 1.74-3.8 2.17-6.86a2.5 2.5 0 01-.86.19c-1.67.09-2.27 1.45-3.7 2.29-.54.32-4.66 3.64-7.19-6.31-1.56-6.15-3.61-5.95-4.66-6.59a5.11 5.11 0 00-1-.47 6.07 6.07 0 00-3.86.17c-.37.29-.86.41-1.24.74-3.7 3.16-7.29 2.28-7.38 2.18 1.18-5.17 7.32-10.11 12.56-10.92 4.53-.71 10.35.22 13.31 2.23a14.17 14.17 0 014.73 5.17 4 4 0 004.89 2 13.36 13.36 0 003.77-1.79c9-9.45 10.51-.59 13.15-1.58 13.66-5.07 23.46 2 23.9 2.35a6.29 6.29 0 012.76 3.72c.36 1.45.21 3.07 1 4.31 1.28 1.93 4.34 1.8 6.15.36s2.66-3.71 3.46-5.89z" style="transform-origin:167.96px 144.427px" id="prefix__elosi9vmcwd3" class="prefix__animable" fill="#263238"/><path d="M155.12 136.75c-.2-.71-.34-1.32-.4-1.58a13.55 13.55 0 01.4 1.58z" style="transform-origin:154.92px 135.96px" id="prefix__elq1jdu0lxwu" class="prefix__animable" fill="#263238"/><path d="M143.88 146.14a2.88 2.88 0 01-.78-.1c-1.92-.5-3-2.86-4.14-5.36-1.85-4.05-4-8.65-10.17-6.57l-.16-.48c6.65-2.22 8.94 2.81 10.78 6.84 1.1 2.39 2.13 4.65 3.82 5.09 1.06.28 2.34-.15 3.93-1.3.84-.62 1.52-4 2.12-7.07.55-2.78 1-5.19 1.66-6 1.39-1.73 3.83-2.93 5.8-1.87 1.42.77 2 2.35 2.55 3.88s1.06 3 2.35 3.62l-.23.44c-1.46-.74-2-2.34-2.6-3.89s-1.05-2.93-2.31-3.61c-1.71-.92-3.94.21-5.17 1.74-.56.69-1.07 3.27-1.56 5.76-.68 3.41-1.31 6.64-2.32 7.37a6.36 6.36 0 01-3.57 1.51z" style="transform-origin:145.135px 137.531px" id="prefix__elwzcy6bfqee" class="prefix__animable" fill="#263238"/><path d="M153.57 146.11a6.41 6.41 0 01-2.75 4c-1.9 1.19-3.49-.34-3.51-2.48 0-1.92 1-4.85 3.12-5.23a2.87 2.87 0 013.24 2.45 2.74 2.74 0 01-.1 1.26z" style="transform-origin:150.506px 146.449px" id="prefix__elzb92r96yprl" class="prefix__animable" fill="#ffb573"/><path d="M130 167.78c-2.59 0-5.29-.59-7-2.48-5.06-5.43-1.34-22.5 5.14-32.15l.41.28c-6.38 9.5-10.1 26.25-5.19 31.53 3.4 3.65 10.81 2.07 13.13 1.23l.17.48a21.34 21.34 0 01-6.66 1.11z" style="transform-origin:128.651px 150.465px" id="prefix__elumiixlp29wc" class="prefix__animable" fill="#263238"/><path d="M155 137.74h-.5c0-3.37-1.76-6.74-5-9.5-3.48-3-8.05-4.62-11.38-4.08-3.81.61-9 3-11.45 6.68l-.42-.28c2.52-3.84 7.88-6.26 11.79-6.89 3.46-.56 8.2 1.12 11.78 4.19 3.33 2.85 5.18 6.36 5.18 9.88z" style="transform-origin:140.625px 130.652px" id="prefix__elh2gkugaepgu" class="prefix__animable" fill="#263238"/><path d="M155.26 162.62a8.76 8.76 0 01-6.66-2.78 6.73 6.73 0 01-1.51-5 5.36 5.36 0 012-3.79l.31.39a5 5 0 00-1.79 3.45 6.21 6.21 0 001.4 4.59 8.71 8.71 0 008.38 2.39c2.6-.55 5.14-2 8-4.5a79.6 79.6 0 008.22-8.9c4-4.78 8.12-9.73 13.65-12.76l.24.44c-5.45 3-9.54 7.89-13.5 12.64a80.64 80.64 0 01-8.28 9c-2.92 2.58-5.53 4-8.22 4.61a10.41 10.41 0 01-2.24.22z" style="transform-origin:167.276px 149.167px" id="prefix__elegv3bdw98sw" class="prefix__animable" fill="#263238"/><path d="M190.11 148.7a4.15 4.15 0 01-.79-.07l.08-.49c3.34.58 7.78-3.2 10.43-5.46 1.47-1.24 3.41-5.5 2.16-8.7-1.09-2.82-4.41-4.22-9.59-4v-.5c6.84-.24 9.25 2.23 10.08 4.35 1.38 3.55-.8 8-2.3 9.27-2.55 2.11-6.65 5.6-10.07 5.6z" style="transform-origin:196.12px 139.082px" id="prefix__elo3p9a9u3a8h" class="prefix__animable" fill="#263238"/><path d="M167.93 168.54c2.09 5.61 8.26 31.13 8.45 34.31v2.79l-.05.78c0 .34-.08.7-.14 1a14.15 14.15 0 01-.47 1.81 18.24 18.24 0 01-2.94 5.3 39.58 39.58 0 01-7.06 6.87 79.5 79.5 0 01-15.58 9.31l-3.23-5.41 3.21-2.69c1.07-.91 2.11-1.86 3.15-2.78 2.08-1.87 4.1-3.76 5.94-5.7 1.78-1.78 4.67-4.5 6-6.61a7.81 7.81 0 001-2.37 1.37 1.37 0 000-.29v-.35-.73c0-.24-6.87-27.15-8.66-32.42z" style="transform-origin:161.645px 199.625px" id="prefix__elfb36o1e1iuj" class="prefix__animable" fill="#ffb573"/><path d="M151.88 228.53a26.26 26.26 0 01-2 5.8 5.19 5.19 0 01-1.79 2.12c-2.41 1.68-5 3.39-7.41-1.34-.08-.1-1.66-1.85-1.73-2-1.5-2.53.84-4.17 3.37-5.67l6.81-3.91z" style="transform-origin:145.179px 230.858px" id="prefix__eliiz971oass9" class="prefix__animable" fill="#ffb573"/><path d="M154.66 175.56c1.81 9.26 4.69 7.6 7 12.61l11-2.77s2.95-7.35.72-13.46a10.28 10.28 0 00-16-4.35 7.71 7.71 0 00-2.72 7.97z" style="transform-origin:164.318px 176.76px" id="prefix__el8v34dpnuj6q" class="prefix__animable" fill="#263238"/><path style="transform-origin:164.7px 185.41px" class="prefix__animable" fill="#00aeff" transform="rotate(-15.709)" d="M162.97 184.91h3.46v1h-3.46z" id="prefix__elko4z5wqo46b"/><path style="transform-origin:125.01px 193.19px" class="prefix__animable" fill="#00aeff" transform="rotate(-87.75)" d="M124.51 191.46h1v3.46h-1z" id="prefix__elt2yn1vaqcsa"/><path style="transform-origin:170.08px 184.21px" class="prefix__animable" fill="#00aeff" transform="rotate(-10.18)" d="M168.21 183.71h3.74v1h-3.74z" id="prefix__elk9ohcq494lp"/><path style="transform-origin:199.86px 267.85px" id="prefix__elicpxkdeuag" class="prefix__animable" fill="#263238" d="M241.14 289.47l-39.4 28.45-43.16-83.16 26.68-16.98 55.88 71.69z"/><path style="transform-origin:199.86px 267.85px" class="prefix__animable" fill="#fff" opacity=".8" d="M241.14 289.47l-39.4 28.45-43.16-83.16 26.68-16.98 55.88 71.69z" id="prefix__el6z4uinkclpd"/><path style="transform-origin:186.39px 274.395px" class="prefix__animable" opacity=".1" d="M201.74 317.92l12.46-8.99-50.23-78.06-5.39 3.89 43.16 83.16z" id="prefix__elmz9188ua1d"/><path d="M179.74 227a.84.84 0 010 1.19.84.84 0 110-1.19z" style="transform-origin:179.147px 227.595px" id="prefix__elzvefjsn1lp" class="prefix__animable" fill="#263238"/><path d="M139.4 177a3.08 3.08 0 00-2.64.93 4.38 4.38 0 00-.61 3.21c.14 1.87.37 3.72.68 5.57a2.73 2.73 0 00.52 1.37 1.83 1.83 0 002.1.24 5 5 0 001.62-1.55 11.14 11.14 0 002.18-4.19c.63-2.85-.93-5.31-3.85-5.58z" style="transform-origin:139.728px 182.759px" id="prefix__el1izsnwdjd61" class="prefix__animable" fill="#00aeff"/><path d="M143.81 179a4.83 4.83 0 00-.44 4.13c.75 1.79 2.75 2.65 4.6 3.24.88.29 2 .5 2.62-.15a2.65 2.65 0 00.51-2l-.1-4.32a9.38 9.38 0 00-.39-3c-1.7-4.77-5.53-.26-6.8 2.1z" style="transform-origin:147.113px 180.722px" id="prefix__ellgvi0odhr9" class="prefix__animable" fill="#00aeff"/><path d="M143.33 196a5.29 5.29 0 01-2.18-3.74 15.68 15.68 0 011.53-10.35l.88.47a14.7 14.7 0 00-1.43 9.68 4.4 4.4 0 001.72 3.09z" style="transform-origin:142.354px 188.955px" id="prefix__elbbw4dofw3su" class="prefix__animable" fill="#00aeff"/><path d="M150.14 193.64a11.48 11.48 0 01-6.44-10.5h1a10.49 10.49 0 005.88 9.57z" style="transform-origin:147.139px 188.39px" id="prefix__elyl2v0l5366" class="prefix__animable" fill="#00aeff"/><path d="M175.33 224.13a65.86 65.86 0 00-12.56-11 6.06 6.06 0 00-2.05-1 2 2 0 00-2 .51 2.13 2.13 0 00-.13 2.25l-.47.18a2.56 2.56 0 01.22-2.76 2.52 2.52 0 012.45-.67 6.56 6.56 0 012.22 1.09 66.25 66.25 0 0112.65 11.1z" style="transform-origin:166.738px 217.842px" id="prefix__elhcpi4l8y2nt" class="prefix__animable" fill="#263238"/><path d="M178.91 227.68c-2.66-5.22-9.64-13.16-14.36-16.34a6.25 6.25 0 00-2.05-1 2 2 0 00-2 .51 2.08 2.08 0 00-.12 2.25l-.47.18a2.31 2.31 0 012.66-3.43 6.8 6.8 0 012.23 1.09c4.77 3.22 11.84 11.25 14.53 16.53z" style="transform-origin:169.443px 218.71px" id="prefix__elg43z5sf28xn" class="prefix__animable" fill="#263238"/><path d="M172.1 226a30.4 30.4 0 00-3-1.53c-1.53-.74-3.28-1.57-4.19-2.12l.25-.43c.9.54 2.63 1.37 4.16 2.1a20.66 20.66 0 013.18 1.64z" style="transform-origin:168.705px 223.96px" id="prefix__elxelp21u9qbh" class="prefix__animable" fill="#263238"/><path d="M81.81 225.59l-.36-.35a24.79 24.79 0 004-6.29l.47.18a25.68 25.68 0 01-4.11 6.46z" style="transform-origin:83.685px 222.27px" id="prefix__elwo3gmjr5pg8" class="prefix__animable" fill="#263238"/><path d="M87.38 228.72l-.4-.3a154 154 0 0010.28-15.66c.69-1.21 1.31-2.59.74-3.72a2.71 2.71 0 00-3.2-1 7.2 7.2 0 00-2.69 1.78l-.34-.37a7.77 7.77 0 012.88-1.89 3.23 3.23 0 013.79 1.27c.69 1.34 0 2.87-.75 4.19a152.94 152.94 0 01-10.31 15.7z" style="transform-origin:92.8522px 218.045px" id="prefix__els020gf3unj" class="prefix__animable" fill="#263238"/><path d="M91.32 224.8l-.42-.27 6.34-10.16a8.77 8.77 0 001.37-3 2.74 2.74 0 00-1-2.76 2.65 2.65 0 00-2.58.11A7.18 7.18 0 0093 210.5l-.38-.32a7.42 7.42 0 012.08-1.9 3.12 3.12 0 013.08-.11 3.2 3.2 0 011.28 3.27 8.91 8.91 0 01-1.44 3.19z" style="transform-origin:95.0144px 216.308px" id="prefix__el4vpkg97cfp" class="prefix__animable" fill="#263238"/><path d="M85.4 223l-.42-.26a24.16 24.16 0 001.75-3.62l.47.18a22.88 22.88 0 01-1.8 3.7z" style="transform-origin:86.09px 221.06px" id="prefix__elowj0jotmn5e" class="prefix__animable" fill="#263238"/><path d="M106.57 228.55a.59.59 0 01-.41-.18.54.54 0 01-.13-.65l.45.24a99.16 99.16 0 001.78-14.37 7.64 7.64 0 00-.54-4.05c-.59-1.12-2.07-2-3.23-1.42-1.33.63-1.47 2.63-1.47 4.08h-.5c0-1.58.17-3.78 1.76-4.53 1.44-.69 3.17.29 3.88 1.63a8.18 8.18 0 01.6 4.31 98.15 98.15 0 01-1.84 14.69v.11l-.11.06a.46.46 0 01-.24.08z" style="transform-origin:105.675px 217.996px" id="prefix__eljae48ekqha" class="prefix__animable" fill="#263238"/><path style="transform-origin:103.31px 222.595px" class="prefix__animable" fill="#263238" transform="rotate(-4.65)" d="M103.06 220.52h.5v4.15h-.5z" id="prefix__el96en25fe13e"/><path d="M107 228.63l-.5-.07a40 40 0 011.58-6.11c.34-1.07.69-2.16 1-3.25 1-3.83 1-6.88 0-9.35a2.69 2.69 0 00-1.52-1.71 2.12 2.12 0 00-2.22 1.07 5.89 5.89 0 00-.75 2.93H104a6.46 6.46 0 01.82-3.2 2.63 2.63 0 012.79-1.28 3.15 3.15 0 011.84 2c1.07 2.57 1.09 5.73 0 9.66-.29 1.11-.64 2.21-1 3.28a38.68 38.68 0 00-1.45 6.03z" style="transform-origin:107.13px 218.121px" id="prefix__ely93maz6yk1n" class="prefix__animable" fill="#263238"/><path style="transform-origin:104.52px 222.55px" class="prefix__animable" fill="#263238" transform="rotate(-3.39)" d="M104.27 220.76h.5v3.58h-.5z" id="prefix__elxdqoozk9nfd"/></g><g id="prefix__freepik--character-2--inject-196" class="prefix__animable" style="transform-origin:330.539px 250.558px;animation:1s 1 forwards cubic-bezier(.36,-.01,.5,1.38) slideLeft;animation-delay:0s"><path d="M359.67 203.06c-1.88-4.48-4.35-36.61-13.05-44.93-2.66-2.55-11.74-6-15.06-4.38-2.9 1.41.46 6.68.29 9.94s.81 6.43 1.79 9.52q3.71 11.63 7.71 23.15a89.37 89.37 0 004.71 11.64z" style="transform-origin:345.023px 180.667px" id="prefix__elyvyt29f3nwh" class="prefix__animable" fill="#e29471"/><g style="transform-origin:345.023px 180.667px" class="prefix__animable" opacity=".1" id="prefix__el747h4xu171i"><path d="M359.67 203.06c-1.88-4.48-4.35-36.61-13.05-44.93-2.66-2.55-11.74-6-15.06-4.38-2.9 1.41.46 6.68.29 9.94s.81 6.43 1.79 9.52q3.71 11.63 7.71 23.15a89.37 89.37 0 004.71 11.64z" id="prefix__eldv6nlqtq01r" class="prefix__animable" style="transform-origin:345.023px 180.667px"/></g><path d="M353.55 196.61a10.9 10.9 0 00-7.33 3.71c-1.74 2.21-2.15 5.57-.48 7.83 1.28 1.75 3.47 2.56 5.57 3.1 6.55 1.68 19.25-.16 25.78-1.91a11.6 11.6 0 005-2.41 4.87 4.87 0 001.5-5.07c-.76-2-3-2.9-5-3.6-6.41-2.26-18.13-2.46-25.04-1.65z" style="transform-origin:364.234px 204.044px" id="prefix__eljml17eqxtfk" class="prefix__animable" fill="#e29471"/><path d="M377.09 209.34l15.59-.55s1.1-10.46.79-11.45c0 0-5.83-1.14-10.23 1.19l-3.89 2.5z" style="transform-origin:385.308px 203.201px" id="prefix__elt9z99y2qdu" class="prefix__animable" fill="#e29471"/><path d="M390.45 208.89l2.55-11.53 5.28.25a1.62 1.62 0 011.52 1.91l-1.17 6.32a3.1 3.1 0 01-2.76 2.52z" style="transform-origin:395.138px 203.125px" id="prefix__elhcfmdmn0q15" class="prefix__animable" fill="#e29471"/><g style="transform-origin:372.253px 204.044px" class="prefix__animable" opacity=".2" id="prefix__elgytv15t51f"><path d="M353.55 196.61a10.9 10.9 0 00-7.33 3.71c-1.74 2.21-2.15 5.57-.48 7.83 1.28 1.75 3.47 2.56 5.57 3.1 6.55 1.68 19.25-.16 25.78-1.91a11.6 11.6 0 005-2.41 4.87 4.87 0 001.5-5.07c-.76-2-3-2.9-5-3.6-6.41-2.26-18.13-2.46-25.04-1.65z" id="prefix__elzlbtybxggrp" class="prefix__animable" style="transform-origin:364.234px 204.044px"/><path d="M377.09 209.34l15.59-.55s1.1-10.46.79-11.45c0 0-5.83-1.14-10.23 1.19l-3.89 2.5z" id="prefix__el5lw78p91t5t" class="prefix__animable" style="transform-origin:385.308px 203.201px"/><path d="M390.45 208.89l2.55-11.53 5.28.25a1.62 1.62 0 011.52 1.91l-1.17 6.32a3.1 3.1 0 01-2.76 2.52z" id="prefix__eljhwu2fmowcf" class="prefix__animable" style="transform-origin:395.138px 203.125px"/></g><path d="M264.26 357.09l-28.45 11.16c-.83-.72-5.67-10.29-5.67-10.29l25.23-11.65z" style="transform-origin:247.2px 357.28px" id="prefix__elh0pnzhis0o" class="prefix__animable" fill="#e29471"/><path d="M236.73 370.89a.31.31 0 01.48-.33c.18.12 4.46 3 4.88 5.17a1.51 1.51 0 01-.2 1.19 1.13 1.13 0 01-1.18.61c-.88-.11-1.79-1.43-2.51-2.92a21.64 21.64 0 01-1.47-3.72zm4.6 4.43a13.54 13.54 0 00-3.71-3.72c.76 2.27 2.22 5.18 3.23 5.35.14 0 .33 0 .58-.36a1 1 0 00.12-.72 3.73 3.73 0 00-.2-.56z" style="transform-origin:239.428px 374.023px" id="prefix__el5piayvlly7w" class="prefix__animable" fill="#00aeff"/><path d="M236.79 370.69a.27.27 0 01.23-.2c.14-.05 3.38-1.28 5.32-.41a2.21 2.21 0 011.14 1.33 1.1 1.1 0 01-.27 1.4c-1.18.87-5-.65-6.34-1.73l-.09-.11zm5.26 0a7 7 0 00-4.29.24c1.56 1 4.5 2 5.15 1.39.06-.06.23-.18.05-.68l-.12-.15a1.51 1.51 0 00-.79-.83z" style="transform-origin:240.201px 371.419px" id="prefix__ellpqjg340sde" class="prefix__animable" fill="#00aeff"/><path d="M238 368.06l-1.77-1.54a9.08 9.08 0 01-3.14-6.81v-3.06a1.09 1.09 0 00-1.25-.63l-10.42 1.84c-1 .26-1.34 2.56-1.29 2.66 2.33 7.27 8.51 22.41 10.75 27.32s7.38 3.33 6.91 1.12c-2.14-9.9-1-14.54.31-18.59a3.13 3.13 0 00-.1-2.31z" style="transform-origin:229.2px 373.532px" id="prefix__el4q9adwciuys" class="prefix__animable" fill="#263238"/><g style="transform-origin:255.4px 354.25px" class="prefix__animable" opacity=".2" id="prefix__elh1j1d4u6h2i"><path d="M246.54 350.39l8.83-4.08 8.89 10.78-13 5.1-2.11-2.56a10 10 0 01-2.23-5.39z" id="prefix__el24fpeb31b41" class="prefix__animable" style="transform-origin:255.4px 354.25px"/></g><path d="M297.72 247.3a29.17 29.17 0 00-2 6.46c-2.28 11.7-5.46 51.36-7.53 66.44a8.92 8.92 0 01-5.39 6.8c-8.23 3.88-13.57 5.06-32.12 20.28 2.24 4.76 4.36 8.1 6.4 13.68 0 0 35.75-13.75 43.93-20.47 12-9.91 26.69-62 31-75.42 2.42-7.64 5.21-16.76.75-23.35-2.54-3.72-26.99-14.95-35.04 5.58z" style="transform-origin:292.901px 298.13px" id="prefix__el3np4la6n213" class="prefix__animable" fill="#263238"/><path d="M344.13 159.22c3 3.92 3.39 9.94 3.9 13.36 1.08 7.26-.78 43.39-1.9 49.83s-37.16 7.3-43.76 1.36l-13.14-53a12.71 12.71 0 0110.47-15.62c3-.44 5.1-.81 4.53-.88 0-.03 29.48-8.74 39.9 4.95z" style="transform-origin:318.607px 189.641px" id="prefix__elnwbziqujin" class="prefix__animable" fill="#00aeff"/><g style="transform-origin:318.607px 189.641px" class="prefix__animable" opacity=".3" id="prefix__elvg0szs5atm"><path d="M344.13 159.22c3 3.92 3.39 9.94 3.9 13.36 1.08 7.26-.78 43.39-1.9 49.83s-37.16 7.3-43.76 1.36l-13.14-53a12.71 12.71 0 0110.47-15.62c3-.44 5.1-.81 4.53-.88 0-.03 29.48-8.74 39.9 4.95z" style="transform-origin:318.607px 189.641px" id="prefix__el6hv9irggotn" class="prefix__animable" fill="#fff"/></g><path d="M346.13 222.41a68.27 68.27 0 01.72 17.76 40.66 40.66 0 008.47 28.53s-47.27-6.88-58.46-19.13l5.51-25.8a171.42 171.42 0 0043.76-1.36z" style="transform-origin:326.09px 245.555px" id="prefix__eluwrr79wb4c" class="prefix__animable" fill="#263238"/><path d="M312.54 141.12c-3.79-3.2-7.13-7.13-8.65-11.89a15.61 15.61 0 014-15.25c.31-.29.81-.16 1.2 0s-.56.49-.45.82.14.45.2.67.15.51.21.76a14.26 14.26 0 00-1.24 3.09 13.88 13.88 0 00-.21 6.28c.29 1.57.54 3 .8 4.3 1 5.1 1.87 8.35 4.14 11.22z" style="transform-origin:307.926px 127.464px" id="prefix__elx9xlo8ajih" class="prefix__animable" fill="#263238"/><path d="M313.33 141.77l-.77-.63c-2.27-2.87-3.14-6.14-4.11-11.22-.26-1.31-.51-2.73-.8-4.3a13.88 13.88 0 01.21-6.28 14.26 14.26 0 011.24-3.09c1.21 4.53 1.39 9.23 1.81 13.87a40.22 40.22 0 002.42 11.65z" style="transform-origin:310.359px 129.01px" id="prefix__eld5z5b3ezxse" class="prefix__animable" fill="#263238"/><path d="M314.35 136.31c.57 5.22 1 12.53-1.86 16.67a4.28 4.28 0 00-.13 4.77c1.66 2.51 5.48 6.3 14.23 10.65 2.59-3.18 3.52-5.77 3.7-7.74a5.5 5.5 0 00-3.23-5.39c-4.22-2-3.76-4.51-2.45-8.45z" style="transform-origin:321px 152.355px" id="prefix__el5slityjd0pv" class="prefix__animable" fill="#e29471"/><path d="M318.51 140.55l6 6.27a18.44 18.44 0 00-.82 3.19c-2.44-.56-6.13-3-6.44-5.79a8.09 8.09 0 011.26-3.67z" style="isolation:isolate;transform-origin:320.88px 145.28px" class="prefix__animable" opacity=".2" id="prefix__ele3qarzf78cm"/><path d="M336.45 136.2a12.14 12.14 0 01-12 11.1h-.08a13.37 13.37 0 01-6.69-1.75 15.3 15.3 0 01-2.15-1.45c-.28-.22-.55-.45-.8-.67a17.15 17.15 0 01-2.18-2.29c-2.27-2.87-3.14-6.14-4.11-11.22-.26-1.31-.51-2.73-.8-4.3a13.88 13.88 0 01.21-6.28 14.26 14.26 0 011.24-3.09 11.47 11.47 0 01.79-1.25 13.23 13.23 0 0114.42-5.24c4.55 1.21 7.68 4.9 9.65 9.43.2.45.38.91.55 1.37a36.1 36.1 0 011.95 15.64z" style="transform-origin:321.997px 128.29px" id="prefix__elw3s1rmiuk7m" class="prefix__animable" fill="#e29471"/><path d="M323.45 126.22c.11.81.61 1.41 1.12 1.35s.86-.78.77-1.58-.61-1.41-1.12-1.35-.82.81-.77 1.58z" style="transform-origin:324.399px 126.105px" id="prefix__elinx9695782" class="prefix__animable" fill="#263238"/><path d="M332.4 125.1c.11.82.61 1.41 1.12 1.35s.86-.78.77-1.59-.61-1.41-1.12-1.33-.86.77-.77 1.57z" style="transform-origin:333.345px 124.989px" id="prefix__eld9qpdliug3e" class="prefix__animable" fill="#263238"/><path d="M329.82 126.91a21.68 21.68 0 003.47 4.8 3.48 3.48 0 01-2.77.9z" style="transform-origin:331.555px 129.772px" id="prefix__el4kkeqx4onhb" class="prefix__animable" fill="#ea573f"/><path d="M326.6 136.32a6.62 6.62 0 001.18-.07.23.23 0 00.22-.25.25.25 0 00-.27-.2 6.24 6.24 0 01-5.42-1.85.24.24 0 00-.33 0 .25.25 0 000 .34 6.5 6.5 0 004.62 2.03z" style="transform-origin:324.957px 135.104px" id="prefix__elttg00myc6oa" class="prefix__animable" fill="#263238"/><path d="M319.63 124.85a.46.46 0 00.46-.32 5.58 5.58 0 013.43-2.86.48.48 0 00.34-.59.46.46 0 00-.56-.34 6.37 6.37 0 00-4.07 3.47.46.46 0 00.28.6.32.32 0 00.12.04z" style="transform-origin:321.538px 122.788px" id="prefix__elf7nc8d5729n" class="prefix__animable" fill="#263238"/><path d="M334.57 120.55a.48.48 0 00.42-.23.49.49 0 00-.14-.66 4.51 4.51 0 00-4.31-.47.46.46 0 00-.24.59.46.46 0 00.61.23 3.66 3.66 0 013.36.42.5.5 0 00.3.12z" style="transform-origin:332.665px 119.698px" id="prefix__elrh54r59x1s" class="prefix__animable" fill="#263238"/><path d="M313.33 132.63c-.42.55-1.76-2.39-2.44-2.53a9.7 9.7 0 00-2.46-.2c-.26-1.31-.51-2.73-.8-4.3a13.88 13.88 0 01.21-6.28 14.26 14.26 0 011.24-3.09c-.06-.25-.13-.51-.21-.76a6.08 6.08 0 011-.49 4.64 4.64 0 012.47-.26 4 4 0 012.78 2.38c-3.43 6.42-.49 13.84-1.79 15.53z" style="isolation:isolate;transform-origin:311.244px 123.677px" class="prefix__animable" opacity=".2" id="prefix__elwr57g0xnm3p"/><path d="M305.92 133.57a7.1 7.1 0 004 3.61c2.36.78 3.64-1.34 3.08-3.68-.52-2.09-2.36-5-4.76-4.83a3.22 3.22 0 00-2.81 3.57 3.28 3.28 0 00.49 1.33z" style="transform-origin:309.269px 133.004px" id="prefix__eluyrshjo5dud" class="prefix__animable" fill="#e29471"/><path d="M416.78 371.35l2.36 30.47c-.93.59-11.09 5.33-11.5 2.42-1.23-8.88-3.76-27.53-3.76-27.53z" style="transform-origin:411.51px 388.264px" id="prefix__eld1vu4hgfgac" class="prefix__animable" fill="#e29471"/><path d="M421.93 401.72a.35.35 0 01-.28-.22.35.35 0 01.11-.34c.17-.14 4.17-3.39 6.37-3.15a1.5 1.5 0 011.08.53 1.15 1.15 0 01.24 1.31c-.36.81-1.9 1.29-3.53 1.55a21.34 21.34 0 01-3.99.32zm5.59-3.11a13.69 13.69 0 00-4.65 2.46c2.4-.06 5.61-.6 6.07-1.52.05-.13.09-.32-.19-.66a.89.89 0 00-.64-.32 3 3 0 00-.6 0z" style="transform-origin:425.6px 399.86px" id="prefix__elrqxu16ztnxr" class="prefix__animable" fill="#00aeff"/><path d="M421.76 401.6a.31.31 0 01-.13-.28c0-.15-.23-3.6 1.17-5.2a2.24 2.24 0 011.61-.71 1.11 1.11 0 011.26.67c.48 1.39-2.1 4.62-3.52 5.56l-.12.05zm1.51-5a7.05 7.05 0 00-1 4.18c1.41-1.21 3.18-3.73 2.84-4.53 0-.07-.1-.27-.64-.24l-.18.07a1.6 1.6 0 00-1.02.48z" style="transform-origin:423.672px 398.538px" id="prefix__el1xq0mqfhsuu" class="prefix__animable" fill="#00aeff"/><path d="M419.59 399.69l-12.35 1.38a1.1 1.1 0 00-1 1L405 412.58c-.05 1.06 2.06 2 2.17 2 7.63-.1 23.91-1.59 29.26-2.29s5.35-6.09 3.1-6.28c-10.1-.86-14.19-3.33-17.69-5.73a3.14 3.14 0 00-2.25-.59z" style="transform-origin:422.976px 407.123px" id="prefix__elsyox4xm96u" class="prefix__animable" fill="#263238"/><g style="transform-origin:410.74px 378.64px" class="prefix__animable" opacity=".2" id="prefix__el9bgj92ysqvn"><path id="prefix__el0dc2ehu1vh7r" class="prefix__animable" style="transform-origin:410.74px 378.64px" d="M405.14 385.93l-1.26-9.22 12.9-5.36.82 12.48-12.46 2.1z"/></g><path d="M325.85 257.62c6.48 11.45 36 34.49 51.07 52 4.91 5.68 21.67 53 25.95 70.38 3.84 1.48 8.94.2 12.82-1.2 3.61-1.3 3.32-10.72 2.57-29.06a237.09 237.09 0 00-4.14-33.91c-4.59-24.42-35.38-55.34-65.45-82.92-5-4.62-12.54-6-20.1-1.52-1.38.8-9 15.11-2.72 26.23z" style="transform-origin:371.066px 304.656px" id="prefix__el2oezst7g08g" class="prefix__animable" fill="#263238"/><path d="M343.29 211.9l14.77-1.1s.49-10.5.12-11.47c0 0-5.88-.81-10.15 1.78l-3.73 2.72z" style="transform-origin:350.804px 205.555px" id="prefix__elv39umtokfqs" class="prefix__animable" fill="#e29471"/><path d="M355.84 211l1.89-11.66 5.28-.06a1.62 1.62 0 011.63 1.82l-.79 6.37a3.12 3.12 0 01-2.61 2.69z" style="transform-origin:360.246px 205.14px" id="prefix__el8kx0jjgsy0d" class="prefix__animable" fill="#e29471"/><path d="M295.21 219c9.35 4.39 48.93-5.31 49.07-7.64.22-3.63.87-8.61.87-8.61-3.25-1.78-27.81 2.95-37.88 2-6.82-.68.47-45.38-10.68-47.76-18.08-3.93-12.43 56.79-1.38 62.01z" style="transform-origin:315.034px 188.467px" id="prefix__elxm5ciqapzoo" class="prefix__animable" fill="#e29471"/><path d="M321 99.79c-.44 1.07-.8 4.28-.21 5.27q1.31-3.48 2.6-7c.27 1.85.22 4.36.49 6.21a23.68 23.68 0 001.89-6.81c.63 4.37.38 6.7 2.2 9.54s4.42 6.09 5 10.12a22.48 22.48 0 01-2.68-3.4 7.31 7.31 0 01.27 3.71 11 11 0 01-6.48-2.53 12.93 12.93 0 01.73 3c-1.63-1.11-6.15-2.15-8.94-1.75-.84.12 0 .44-.73.87-1.68 1-4.47.94-6.41.66-6-.84 1.5-5.57 3-6.8 3.27-2.65 6.67-7.69 9.27-11.09z" style="transform-origin:319.704px 107.68px" id="prefix__el73nagmg2o9i" class="prefix__animable" fill="#263238"/><path d="M329.31 240.31c-1.23 0-2.28-1-2.82-2.74a11.68 11.68 0 01-.35-5.57l-4.22 3.46a2.92 2.92 0 01-2.73.91 1.77 1.77 0 01-1.05-1 3.41 3.41 0 01.13-2.61 6.6 6.6 0 018.48-3.09v-.45l1-.05v.24l.28-.23-.14.41a4.43 4.43 0 013.74 2.41 7.82 7.82 0 01.53 4.95c-.25 1.55-1.14 3.35-2.81 3.37zm-1.77-9.69l-.06.19a10.56 10.56 0 000 6.46c.31 1 .93 2 1.89 2 1.12 0 1.68-1.6 1.84-2.53a6.84 6.84 0 00-.44-4.32 3.49 3.49 0 00-2.5-1.85h-.69zm-3.32-.51a5.83 5.83 0 00-2 .35 5.32 5.32 0 00-3.08 2.71 2.43 2.43 0 00-.12 1.8.76.76 0 00.46.45c.54.2 1.2-.26 1.77-.73l4.95-4.06h-.19v-.19a5 5 0 00-1.79-.33z" style="transform-origin:325.142px 234.73px" id="prefix__elq2i3wxgqcsh" class="prefix__animable" fill="#fff"/><path d="M314.68 251.09l-.71-.71a46.22 46.22 0 0011.78-20.09l1 .27a47.19 47.19 0 01-12.07 20.53z" style="transform-origin:320.36px 240.69px" id="prefix__eljvosqww7atg" class="prefix__animable" fill="#fff"/><path d="M334 255.36l-1-.11a34.7 34.7 0 00-6.5-24l.81-.59a35.71 35.71 0 016.69 24.7z" style="transform-origin:330.343px 243.01px" id="prefix__eluf130rmybfh" class="prefix__animable" fill="#fff"/><path d="M252.43 350.79l-.47-.89c11.24-5.87 40.42-22.46 40.42-28.64 0-12.73 12.45-96.42 12.58-97.26l1 .14c-.13.85-12.57 84.47-12.57 97.12-.01 8.05-39.29 28.65-40.96 29.53z" style="transform-origin:278.96px 287.395px" id="prefix__elr2j4tq2ivt" class="prefix__animable" fill="#fff"/><path style="transform-origin:352.86px 194.29px" id="prefix__elhzhsh8427lk" class="prefix__animable" fill="#00aeff" d="M339.46 185.88h26.8v16.82h-26.8z"/><path style="transform-origin:385.005px 194.29px" id="prefix__el8psnzj4ayzn" class="prefix__animable" fill="#00aeff" d="M365.37 185.88h39.27v16.82h-39.27z"/><path style="transform-origin:385.005px 194.29px" class="prefix__animable" opacity=".2" d="M365.37 185.88h39.27v16.82h-39.27z" id="prefix__ela9l7uizdtcv"/><path style="transform-origin:352.4px 184.08px" id="prefix__el15lhi0zwhux" class="prefix__animable" fill="#263238" d="M337.59 182.28h29.62v3.6h-29.62z"/><path style="transform-origin:386.68px 184.08px" id="prefix__el47h2ab5a3ch" class="prefix__animable" fill="#00aeff" d="M367.22 182.28h38.92v3.6h-38.92z"/><path style="transform-origin:386.68px 184.08px" id="prefix__ela7j3i3dq88" class="prefix__animable" fill="#263238" d="M367.22 182.28h38.92v3.6h-38.92z"/><path d="M355.31 185.31a3 3 0 01-6.06 0z" style="transform-origin:352.28px 186.825px" id="prefix__eljsi79cqsg5l" class="prefix__animable" fill="#263238"/><path style="transform-origin:357.475px 198.315px" id="prefix__elajzl5gut5wl" class="prefix__animable" fill="#fff" d="M350.26 194.55h14.43v7.53h-14.43z"/><path style="transform-origin:386.68px 184.08px" class="prefix__animable" opacity=".2" d="M367.22 182.28h38.92v3.6h-38.92z" id="prefix__elp0y3tzb47k"/><path style="transform-origin:354.39px 169.37px" class="prefix__animable" fill="#00aeff" transform="rotate(2.862)" d="M340.99 160.96h26.8v16.82h-26.8z" id="prefix__eldyd2mzmoxi"/><path style="transform-origin:386.51px 170.83px" class="prefix__animable" fill="#00aeff" transform="rotate(2.6)" d="M366.87 162.42h39.28v16.82h-39.28z" id="prefix__elirgxf7j8mz"/><path style="transform-origin:386.51px 170.83px" class="prefix__animable" opacity=".2" transform="rotate(2.6)" d="M366.87 162.42h39.28v16.82h-39.28z" id="prefix__elh5pafoarwhh"/><path style="transform-origin:354.4px 159.15px" class="prefix__animable" fill="#263238" transform="rotate(2.6)" d="M339.59 157.35h29.62v3.6h-29.62z" id="prefix__el9uk4m3pmgk7"/><path style="transform-origin:388.64px 160.7px" class="prefix__animable" fill="#00aeff" transform="rotate(2.6)" d="M369.18 158.9h38.92v3.6h-38.92z" id="prefix__el9cfeny1o2a"/><path style="transform-origin:388.64px 160.7px" class="prefix__animable" fill="#263238" transform="rotate(2.6)" d="M369.18 158.9h38.92v3.6h-38.92z" id="prefix__elez7n9ocso4i"/><path d="M357.25 160.51a3 3 0 11-6.06-.28z" style="transform-origin:354.218px 161.82px" id="prefix__ell1ocv5guhcd" class="prefix__animable" fill="#263238"/><path style="transform-origin:358.825px 173.595px" class="prefix__animable" fill="#fff" transform="rotate(2.6)" d="M351.61 169.83h14.43v7.53h-14.43z" id="prefix__elt2ng5pqjxhd"/><path style="transform-origin:388.64px 160.7px" class="prefix__animable" opacity=".2" transform="rotate(2.6)" d="M369.18 158.9h38.92v3.6h-38.92z" id="prefix__elr88ek0hs79m"/><path d="M405.77 132.09a.34.34 0 01-.06-.35.35.35 0 01.31-.18c.22 0 5.36.33 6.83 2a1.53 1.53 0 01.43 1.13 1.13 1.13 0 01-.71 1.12c-.81.35-2.27-.33-3.65-1.25a21.35 21.35 0 01-3.15-2.47zm6.21 1.49a13.57 13.57 0 00-5.08-1.33c1.8 1.58 4.54 3.35 5.5 3 .12-.06.28-.17.31-.6a.93.93 0 00-.26-.68 3.32 3.32 0 00-.46-.38z" style="transform-origin:409.484px 133.732px" id="prefix__el7ve3hht4kws" class="prefix__animable" fill="#00aeff"/><path d="M405.72 131.89a.29.29 0 01.1-.29c.1-.11 2.27-2.81 4.38-3a2.23 2.23 0 011.66.56 1.12 1.12 0 01.48 1.35c-.59 1.35-4.67 2-6.35 1.71h-.13zm4.53-2.69a7 7 0 00-3.59 2.38c1.85.06 4.87-.6 5.15-1.42 0-.07.11-.26-.3-.61l-.18-.06a1.55 1.55 0 00-1.08-.29z" style="transform-origin:409.061px 130.441px" id="prefix__elikufrclli6i" class="prefix__animable" fill="#00aeff"/><path d="M405.42 129l-10-7.35a1.09 1.09 0 00-1.39.09l-8.03 6.88c-.76.75.14 2.89.23 2.95 5.7 5.09 18.68 15 23.1 18.12s8.06-.87 6.53-2.53c-6.86-7.46-8.2-12.06-9.14-16.19a3.1 3.1 0 00-1.3-1.97z" style="transform-origin:400.956px 136.145px" id="prefix__el35cvtsre88i" class="prefix__animable" fill="#263238"/><path d="M405.42 129l-10-7.35a1.09 1.09 0 00-1.39.09l-8.03 6.88c-.76.75.14 2.89.23 2.95 5.7 5.09 18.68 15 23.1 18.12s8.06-.87 6.53-2.53c-6.86-7.46-8.2-12.06-9.14-16.19a3.1 3.1 0 00-1.3-1.97z" style="transform-origin:400.956px 136.145px" class="prefix__animable" fill="#fff" opacity=".7" id="prefix__el5q1fx50i54l"/><path d="M401.76 145a74.5 74.5 0 00-9.6-22.17l.84-.54a75.31 75.31 0 019.73 22.46z" style="transform-origin:397.445px 133.645px" id="prefix__elp9v5ab0krp" class="prefix__animable" fill="#00aeff"/><path d="M405.33 147.6a107.7 107.7 0 00-11.56-26.68l.84-.54a108.83 108.83 0 0111.69 27z" style="transform-origin:400.035px 133.99px" id="prefix__elw83kuk3hlz" class="prefix__animable" fill="#00aeff"/><path style="transform-origin:366.89px 142.19px" class="prefix__animable" fill="#00aeff" transform="rotate(12.65)" d="M353.49 133.78h26.8v16.82h-26.8z" id="prefix__el37fv6ygjphj"/><path style="transform-origin:398.255px 149.23px" class="prefix__animable" fill="#00aeff" transform="rotate(12.65)" d="M378.62 140.82h39.27v16.82h-39.27z" id="prefix__eln12axg030io"/><path style="transform-origin:398.255px 149.23px" class="prefix__animable" opacity=".2" transform="rotate(12.65)" d="M378.62 140.82h39.27v16.82h-39.27z" id="prefix__ellp3ke3izh08"/><path d="M365.27 133.21a3 3 0 005.81 1.3z" style="transform-origin:368.168px 134.853px" id="prefix__eljt61edd5cm" class="prefix__animable" fill="#263238"/><path style="transform-origin:370.525px 147.125px" class="prefix__animable" fill="#fff" transform="rotate(12.65)" d="M363.31 143.36h14.43v7.53h-14.43z" id="prefix__el066xgxffb12i"/><path style="transform-origin:405.75px 100.01px" class="prefix__animable" fill="#263238" transform="rotate(57.65)" d="M390.94 98.21h29.62v3.6h-29.62z" id="prefix__el967pfykfxs8"/><path style="transform-origin:424.09px 128.89px" class="prefix__animable" fill="#263238" transform="rotate(57.65)" d="M404.63 127.09h38.92v3.6h-38.92z" id="prefix__elvw7zprsltk"/><path style="transform-origin:424.09px 128.89px" class="prefix__animable" opacity=".2" transform="rotate(57.65)" d="M404.63 127.09h38.92v3.6h-38.92z" id="prefix__elcfhehuh7836"/><path d="M383.23 116.41a.31.31 0 01-.18-.55c.17-.14 4.17-3.39 6.38-3.15a1.5 1.5 0 011.08.53 1.14 1.14 0 01.23 1.31c-.36.81-1.89 1.29-3.53 1.55a21.23 21.23 0 01-3.98.31zm5.58-3.1a13.65 13.65 0 00-4.64 2.46c2.39-.06 5.6-.61 6.06-1.52 0-.13.1-.32-.18-.66a1 1 0 00-.65-.33 4 4 0 00-.6 0z" style="transform-origin:386.894px 114.555px" id="prefix__elve8ls5lx5w" class="prefix__animable" fill="#00aeff"/><path d="M383.05 116.3a.28.28 0 01-.12-.28c0-.15-.23-3.6 1.17-5.2a2.2 2.2 0 011.6-.71 1.11 1.11 0 011.26.67c.49 1.39-2.09 4.62-3.51 5.56h-.12zm1.52-5a7.05 7.05 0 00-1 4.18c1.4-1.21 3.18-3.73 2.83-4.53 0-.07-.1-.27-.63-.25l-.18.08a1.53 1.53 0 00-1.02.48z" style="transform-origin:384.968px 113.213px" id="prefix__el3dhdvz57irk" class="prefix__animable" fill="#00aeff"/><path d="M380.89 114.39l-12.36 1.38a1.09 1.09 0 00-1 1l-1.28 10.5c-.06 1.06 2 2 2.17 2 7.63-.11 23.91-1.59 29.26-2.29s5.34-6.09 3.09-6.28c-10.09-.86-14.19-3.33-17.68-5.73a3.15 3.15 0 00-2.2-.58z" style="transform-origin:384.222px 121.82px" id="prefix__elh0mlu1kgo84" class="prefix__animable" fill="#263238"/><path d="M380.89 114.39l-12.36 1.38a1.09 1.09 0 00-1 1l-1.28 10.5c-.06 1.06 2 2 2.17 2 7.63-.11 23.91-1.59 29.26-2.29s5.34-6.09 3.09-6.28c-10.09-.86-14.19-3.33-17.68-5.73a3.15 3.15 0 00-2.2-.58z" style="transform-origin:384.222px 121.82px" class="prefix__animable" fill="#fff" opacity=".8" id="prefix__elwmuvttt42sd"/><path d="M389 128.6a74.51 74.51 0 00-22.07-9.82l.26-1a75.84 75.84 0 0122.36 10z" style="transform-origin:378.24px 123.19px" id="prefix__elku2bleodwh" class="prefix__animable" fill="#00aeff"/><path d="M393.4 128.13a107.77 107.77 0 00-26.57-11.82l.26-1a109 109 0 0126.86 12z" style="transform-origin:380.39px 121.72px" id="prefix__elh6s0ouwtffw" class="prefix__animable" fill="#00aeff"/><path d="M378.93 218.67s87.74 41.52 39.3 71.19c-47.8 29.28-38.08-71.2-39.3-71.19z" style="transform-origin:405.839px 256.939px" id="prefix__ellnsoqpjpn2b" class="prefix__animable" fill="#fff"/><path d="M410 287.81a18 18 0 01-3.9 2.22 14.25 14.25 0 01-6.21 1.15 23.19 23.19 0 01-14.33-11.5l.39.36c.3.27.62.53.95.78a23.57 23.57 0 006.11 3.31 47.25 47.25 0 0012.71 2.64 41.1 41.1 0 014.28 1.04z" style="transform-origin:397.78px 285.436px" id="prefix__elllwyzvsiy5m" class="prefix__animable" fill="#00aeff"/><path d="M414.66 290.91a23.14 23.14 0 01-10.66 1.24 16.51 16.51 0 003.15-.94 19.26 19.26 0 004.66-2.73 5.68 5.68 0 012.33 1.3 2.57 2.57 0 01.52 1.13z" style="transform-origin:409.33px 290.396px" id="prefix__eljyki9j8nz4m" class="prefix__animable" fill="#00aeff"/><path d="M422.87 285.69a22.87 22.87 0 01-7.18 4.66A3.68 3.68 0 00415 289a5.57 5.57 0 00-2.24-1.4c.34-.3.68-.6 1-.92a25.75 25.75 0 002.2-2.42 16.32 16.32 0 006.91 1.43z" style="transform-origin:417.815px 287.305px" id="prefix__elghhnsqd6r6" class="prefix__animable" fill="#00aeff"/><path d="M425.41 282.86c-.42.55-.87 1.08-1.33 1.58v-.08c-1.16.45-3 .31-5.44-.41-.59-.18-1.22-.39-1.86-.64a35.09 35.09 0 002.8-4.36 6.92 6.92 0 005.3-.33c1.93-1 3.62-3 5-6.12a22.93 22.93 0 01-4.47 10.36z" style="transform-origin:423.33px 278.559px" id="prefix__el8mkb44qljy8" class="prefix__animable" fill="#00aeff"/><path d="M424.8 277.31a5.83 5.83 0 01-4.46.31c.17-.31.32-.62.48-.94a37.4 37.4 0 003.85-12.86 23.28 23.28 0 00-.9-9.13 18.8 18.8 0 00-2.22-4.72 23 23 0 018.26 12.47 14.62 14.62 0 01-1.87 11.88 8.72 8.72 0 01-3.14 2.99z" style="transform-origin:425.335px 263.947px" id="prefix__elnmi9dw42hy" class="prefix__animable" fill="#00aeff"/><path d="M419.05 277c-2.07-1-4-4.08-4.68-6-6.55-18.26-10.69-23.85-12.91-25.45a23.08 23.08 0 0117.15 2.45 16.71 16.71 0 013.88 6.73c1.33 4.25 1.9 11.38-2.92 21.27-.17.31-.34.65-.52 1z" style="transform-origin:412.442px 260.936px" id="prefix__elu7ase0zi9ze" class="prefix__animable" fill="#00aeff"/><path d="M415.48 282.58a47.23 47.23 0 01-5.28-2.58 63 63 0 01-16.1-12.76c-4.1-4.75-5.73-7.94-6.37-9.78a8.56 8.56 0 01-.41-1.63c.33-.51.68-1 1.06-1.5a23 23 0 0111.5-8c.46.14 1.42.67 2.93 2.74 2.95 4 6.44 11.66 10.39 22.67a14.33 14.33 0 004.1 5.88 5.65 5.65 0 001 .63 34 34 0 01-2.82 4.33z" style="transform-origin:402.81px 264.455px" id="prefix__ela86tu3b9a0j" class="prefix__animable" fill="#00aeff"/><path d="M414.66 283.63a24.84 24.84 0 01-3.32 3.33 37.92 37.92 0 00-5-1.26c-10.83-.91-16.42-4-19.2-6.45a13.32 13.32 0 01-2.35-2.67 23.15 23.15 0 011.66-19.31c.05.19.11.39.19.61.92 2.81 3.15 6.27 6.6 10.27a56.08 56.08 0 008.15 7.54 69 69 0 008.19 5.41 49.48 49.48 0 005.08 2.53z" style="transform-origin:399.038px 272.115px" id="prefix__eluajqjj0pqk" class="prefix__animable" fill="#00aeff"/><g style="transform-origin:406.874px 268.592px" class="prefix__animable" opacity=".4" id="prefix__el7g85t3ku0mr"><path d="M410 287.81a18 18 0 01-3.9 2.22 14.25 14.25 0 01-6.21 1.15 23.19 23.19 0 01-14.33-11.5l.39.36c.3.27.62.53.95.78a23.57 23.57 0 006.11 3.31 47.25 47.25 0 0012.71 2.64 41.1 41.1 0 014.28 1.04z" style="transform-origin:397.78px 285.436px" id="prefix__elugilutbo5nc" class="prefix__animable" fill="#fff"/><path d="M414.66 290.91a23.14 23.14 0 01-10.66 1.24 16.51 16.51 0 003.15-.94 19.26 19.26 0 004.66-2.73 5.68 5.68 0 012.33 1.3 2.57 2.57 0 01.52 1.13z" style="transform-origin:409.33px 290.396px" id="prefix__eldn20p7u7opn" class="prefix__animable" fill="#fff"/><path d="M422.87 285.69a22.87 22.87 0 01-7.18 4.66A3.68 3.68 0 00415 289a5.57 5.57 0 00-2.24-1.4c.34-.3.68-.6 1-.92a25.75 25.75 0 002.2-2.42 16.32 16.32 0 006.91 1.43z" style="transform-origin:417.815px 287.305px" id="prefix__elh7nibdilse" class="prefix__animable" fill="#fff"/><path d="M425.41 282.86c-.42.55-.87 1.08-1.33 1.58v-.08c-1.16.45-3 .31-5.44-.41-.59-.18-1.22-.39-1.86-.64a35.09 35.09 0 002.8-4.36 6.92 6.92 0 005.3-.33c1.93-1 3.62-3 5-6.12a22.93 22.93 0 01-4.47 10.36z" style="transform-origin:423.33px 278.559px" id="prefix__elqjns8v8pr3" class="prefix__animable" fill="#fff"/><path d="M424.8 277.31a5.83 5.83 0 01-4.46.31c.17-.31.32-.62.48-.94a37.4 37.4 0 003.85-12.86 23.28 23.28 0 00-.9-9.13 18.8 18.8 0 00-2.22-4.72 23 23 0 018.26 12.47 14.62 14.62 0 01-1.87 11.88 8.72 8.72 0 01-3.14 2.99z" style="transform-origin:425.335px 263.947px" id="prefix__elx3ptlp651fb" class="prefix__animable" fill="#fff"/><path d="M419.05 277c-2.07-1-4-4.08-4.68-6-6.55-18.26-10.69-23.85-12.91-25.45a23.08 23.08 0 0117.15 2.45 16.71 16.71 0 013.88 6.73c1.33 4.25 1.9 11.38-2.92 21.27-.17.31-.34.65-.52 1z" style="transform-origin:412.442px 260.936px" id="prefix__elbmo46oksj3o" class="prefix__animable" fill="#fff"/><path d="M415.48 282.58a47.23 47.23 0 01-5.28-2.58 63 63 0 01-16.1-12.76c-4.1-4.75-5.73-7.94-6.37-9.78a8.56 8.56 0 01-.41-1.63c.33-.51.68-1 1.06-1.5a23 23 0 0111.5-8c.46.14 1.42.67 2.93 2.74 2.95 4 6.44 11.66 10.39 22.67a14.33 14.33 0 004.1 5.88 5.65 5.65 0 001 .63 34 34 0 01-2.82 4.33z" style="transform-origin:402.81px 264.455px" id="prefix__elpwkm63k8y6" class="prefix__animable" fill="#fff"/><path d="M414.66 283.63a24.84 24.84 0 01-3.32 3.33 37.92 37.92 0 00-5-1.26c-10.83-.91-16.42-4-19.2-6.45a13.32 13.32 0 01-2.35-2.67 23.15 23.15 0 011.66-19.31c.05.19.11.39.19.61.92 2.81 3.15 6.27 6.6 10.27a56.08 56.08 0 008.15 7.54 69 69 0 008.19 5.41 49.48 49.48 0 005.08 2.53z" style="transform-origin:399.038px 272.115px" id="prefix__el80b2zpwrqz3" class="prefix__animable" fill="#fff"/></g><path d="M402.62 295.7a15.6 15.6 0 01-7.87-2c-17.52-10.06-16.57-55-16.26-69.81 0-2.24.09-4.22 0-4.82h-.08v-.08c-1.26-1.1-8.73-7.92-8.92-16.51h1c.15 6.94 5.55 12.87 7.78 15a31 31 0 00-2.06-7.78l.92-.39a31.35 31.35 0 012.24 9.1c4.49 2.15 52.58 25.79 53.89 50.14.44 8.18-4.54 15.52-14.8 21.81-5.86 3.53-11.17 5.34-15.84 5.34zm-23.08-76.18c0 .77 0 2.07-.05 4.35-.31 14.63-1.25 59.15 15.76 68.92 5.9 3.39 13.55 2.26 22.72-3.36 9.92-6.07 14.74-13.11 14.32-20.9-1.22-22.69-46.05-45.7-52.75-49.01z" style="transform-origin:401.388px 249.091px" id="prefix__elv562bescss" class="prefix__animable" fill="#00aeff"/></g><defs><filter id="prefix__active" height="200%"><feMorphology in="SourceAlpha" result="DILATED" operator="dilate" radius="2"/><feFlood flood-color="#32DFEC" flood-opacity="1" result="PINK"/><feComposite in="PINK" in2="DILATED" operator="in" result="OUTLINE"/><feMerge><feMergeNode in="OUTLINE"/><feMergeNode in="SourceGraphic"/></feMerge></filter><filter id="prefix__hover" height="200%"><feMorphology in="SourceAlpha" result="DILATED" operator="dilate" radius="2"/><feFlood flood-color="red" flood-opacity=".5" result="PINK"/><feComposite in="PINK" in2="DILATED" operator="in" result="OUTLINE"/><feMerge><feMergeNode in="OUTLINE"/><feMergeNode in="SourceGraphic"/></feMerge><feColorMatrix values="0 0 0 0 0 0 1 0 0 0 0 0 0 0 0 0 0 0 1 0"/></filter></defs></svg>